# https://github.com/mikedh/trimesh

o geometry_1
v 1397.04000000 50.00000000 1544.28500000
v 1397.38600000 50.00000000 1550.00000000
v 1396.70500000 48.00000000 1550.00000000
v 1395.53400000 48.00000000 1539.60700000
v 1396.00800000 50.00000000 1538.65300000
v 1394.30300000 50.00000000 1533.18600000
v 1392.07900000 48.00000000 1529.73600000
v 1297.50000000 65.00000000 1550.00000000
v 1298.12100000 65.00000000 1541.95000000
v 1303.29500000 48.00000000 1550.00000000
v 1394.20800000 60.73919000 1524.47600000
v 1386.51500000 48.00000000 1520.88000000
v 1392.71000000 65.00000000 1519.47000000
v 1397.70800000 65.00000000 1528.08700000
v 1386.09600000 60.73919000 1513.90400000
v 1379.12000000 48.00000000 1513.48500000
v 1378.33600000 65.00000000 1505.80300000
v 1386.17400000 65.00000000 1511.95200000
v 1375.52400000 60.73919000 1505.79200000
v 1370.26400000 48.00000000 1507.92100000
v 1369.47700000 65.00000000 1501.24700000
v 1363.21200000 60.73919000 1500.69200000
v 1360.39300000 48.00000000 1504.46600000
v 1359.91700000 65.00000000 1498.44500000
v 1350.00000000 60.73919000 1498.95300000
v 1350.00000000 48.00000000 1503.29500000
v 1339.60700000 48.00000000 1504.46600000
v 1345.78900000 65.49469000 1497.50000000
v 1350.00000000 65.00000000 1497.50000000
v 1336.78800000 60.73919000 1500.69200000
v 1329.73600000 48.00000000 1507.92100000
v 1341.76500000 66.88312000 1497.50000000
v 1338.06300000 68.93045000 1497.50000000
v 1335.19300000 71.00776000 1497.50000000
v 1324.47600000 60.73919000 1505.79200000
v 1320.88000000 48.00000000 1513.48500000
v 1332.50000000 73.33025000 1497.50000000
v 1322.30500000 73.47839000 1502.03100000
v 1324.87300000 79.50741000 1498.34100000
v 1318.24700000 83.42404000 1500.53300000
v 1313.90400000 60.73919000 1513.90400000
v 1313.48500000 48.00000000 1520.88000000
v 1310.83300000 73.47839000 1510.83300000
v 1313.25800000 85.38495000 1503.26400000
v 1308.92100000 86.21759000 1506.63500000
v 1305.12800000 85.99357000 1510.68800000
v 1302.08100000 84.73840000 1515.18800000
v 1303.00000000 67.15696000 1525.00000000
v 1305.79200000 60.73919000 1524.47600000
v 1307.92100000 48.00000000 1529.73600000
v 1303.00000000 65.00000000 1526.60700000
v 1302.03100000 73.47839000 1522.30500000
v 1298.31300000 79.41892000 1525.00000000
v 1299.86800000 82.60800000 1519.84400000
v 1298.97600000 81.10536000 1522.44100000
v 1300.69200000 60.73919000 1536.78800000
v 1304.46600000 48.00000000 1539.60700000
v 1299.96900000 65.00000000 1534.09000000
v 1480.00000000 11.66809000 1487.58100000
v 1463.00000000 -0.00000000 1486.50000000
v 1480.00000000 -0.00000000 1486.50000000
v 1463.00000000 11.66809000 1487.58100000
v 1463.00000000 22.93885000 1490.78800000
v 1480.00000000 22.93885000 1490.78800000
v 1480.00000000 33.42844000 1496.01100000
v 1463.00000000 33.42844000 1496.01100000
v 1463.00000000 42.77967000 1503.07300000
v 1480.00000000 42.77967000 1503.07300000
v 1480.00000000 50.67409000 1511.73300000
v 1463.00000000 50.67409000 1511.73300000
v 1480.00000000 56.84287000 1521.69600000
v 1463.00000000 56.84287000 1521.69600000
v 1480.00000000 61.07593000 1532.62200000
v 1463.00000000 61.07593000 1532.62200000
v 1480.00000000 63.22912000 1544.14100000
v 1463.00000000 63.22912000 1544.14100000
v 1463.00000000 63.22912000 1555.85900000
v 1480.00000000 63.22912000 1555.85900000
v 1480.00000000 61.07593000 1567.37800000
v 1463.00000000 61.07593000 1567.37800000
v 1480.00000000 56.84287000 1578.30400000
v 1463.00000000 56.84287000 1578.30400000
v 1463.00000000 50.67409000 1588.26700000
v 1480.00000000 50.67409000 1588.26700000
v 1463.00000000 42.77967000 1596.92700000
v 1480.00000000 42.77967000 1596.92700000
v 1480.00000000 33.42844000 1603.98900000
v 1463.00000000 33.42844000 1603.98900000
v 1463.00000000 22.93885000 1609.21200000
v 1480.00000000 22.93885000 1609.21200000
v 1463.00000000 11.66809000 1612.41900000
v 1480.00000000 11.66809000 1612.41900000
v 1480.00000000 0.00000000 1613.50000000
v 1463.00000000 0.00000000 1613.50000000
v 1435.00000000 33.14214000 1585.00000000
v 1435.00000000 33.14214000 1574.00000000
v 1431.70400000 31.49715000 1574.00000000
v 1431.70400000 31.49715000 1585.00000000
v 1428.90900000 29.09853000 1585.00000000
v 1428.90900000 29.09853000 1574.00000000
v 1426.78200000 26.09092000 1585.00000000
v 1426.78200000 26.09092000 1574.00000000
v 1425.45200000 22.65569000 1585.00000000
v 1425.45200000 22.65569000 1574.00000000
v 1425.00000000 19.00000000 1585.00000000
v 1425.00000000 19.00000000 1574.00000000
v 1435.00000000 -0.00000000 1578.50000000
v 1427.00000000 -0.00000000 1578.50000000
v 1427.00000000 -6.82049600 1577.67200000
v 1435.00000000 -6.82049600 1577.67200000
v 1427.00000000 -13.24461000 1575.23500000
v 1435.00000000 -13.24461000 1575.23500000
v 1427.00000000 -18.89900000 1571.33300000
v 1435.00000000 -18.89900000 1571.33300000
v 1427.00000000 -23.45504000 1566.19000000
v 1435.00000000 -23.45504000 1566.19000000
v 1427.00000000 -26.64796000 1560.10600000
v 1435.00000000 -26.64796000 1560.10600000
v 1427.00000000 -28.29220000 1553.43500000
v 1435.00000000 -28.29220000 1553.43500000
v 1427.00000000 -28.29220000 1546.56500000
v 1435.00000000 -28.29220000 1546.56500000
v 1427.00000000 -26.64796000 1539.89400000
v 1435.00000000 -26.64796000 1539.89400000
v 1435.00000000 -23.45504000 1533.81000000
v 1427.00000000 -23.45504000 1533.81000000
v 1427.00000000 -18.89900000 1528.66700000
v 1435.00000000 -18.89900000 1528.66700000
v 1435.00000000 -13.24461000 1524.76500000
v 1427.00000000 -13.24461000 1524.76500000
v 1427.00000000 -6.82049600 1522.32800000
v 1435.00000000 -6.82049600 1522.32800000
v 1435.00000000 -0.00000000 1521.50000000
v 1427.00000000 -0.00000000 1521.50000000
v 1428.81300000 9.00738100 1577.03900000
v 1427.00000000 11.51669000 1576.06900000
v 1427.00000000 7.80285600 1577.41100000
v 1427.00000000 3.93923800 1578.22600000
v 1431.18300000 6.86484200 1577.66100000
v 1433.00600000 5.73068500 1577.91800000
v 1435.00000000 3.24739900 1578.31400000
v 1435.00000000 4.85786400 1578.08300000
v 1435.00000000 1.62635000 1578.45400000
v 1350.00000000 -71.00000000 1460.00000000
v 1350.00000000 -51.00000000 1460.00000000
v 1362.81400000 -51.00000000 1460.91700000
v 1364.07900000 -71.00000000 1461.10800000
v 1375.36600000 -51.00000000 1463.64900000
v 1377.81200000 -71.00000000 1464.40500000
v 1387.40200000 -51.00000000 1468.14000000
v 1390.85900000 -71.00000000 1469.80900000
v 1398.67600000 -51.00000000 1474.29900000
v 1408.95800000 -58.95761000 1482.00000000
v 1408.95800000 -51.00000000 1482.00000000
v 1402.90100000 -71.00000000 1477.18800000
v 1413.64000000 -71.00000000 1486.36000000
v 1418.00000000 -68.00000000 1491.04200000
v 1422.81200000 -71.00000000 1497.09900000
v 1426.46400000 -68.00000000 1502.53200000
v 1430.19100000 -71.00000000 1509.14100000
v 1433.00600000 -68.00000000 1515.21500000
v 1435.59500000 -71.00000000 1522.18800000
v 1437.46100000 -68.00000000 1528.77300000
v 1438.89200000 -71.00000000 1535.92100000
v 1439.71700000 -68.00000000 1542.86500000
v 1440.00000000 -71.00000000 1550.00000000
v 1439.71700000 -68.00000000 1557.13500000
v 1438.89200000 -71.00000000 1564.07900000
v 1437.46100000 -68.00000000 1571.22700000
v 1435.59500000 -71.00000000 1577.81200000
v 1433.00600000 -68.00000000 1584.78500000
v 1430.19100000 -71.00000000 1590.85900000
v 1426.46400000 -68.00000000 1597.46800000
v 1422.81200000 -71.00000000 1602.90100000
v 1418.00000000 -68.00000000 1608.95800000
v 1398.67600000 -51.00000000 1625.70100000
v 1408.95800000 -58.95761000 1618.00000000
v 1408.95800000 -51.00000000 1618.00000000
v 1413.64000000 -71.00000000 1613.64000000
v 1402.90100000 -71.00000000 1622.81200000
v 1390.85900000 -71.00000000 1630.19100000
v 1387.40200000 -51.00000000 1631.86000000
v 1377.81200000 -71.00000000 1635.59500000
v 1375.36600000 -51.00000000 1636.35100000
v 1364.07900000 -71.00000000 1638.89200000
v 1362.81400000 -51.00000000 1639.08300000
v 1350.00000000 -71.00000000 1640.00000000
v 1350.00000000 -51.00000000 1640.00000000
v 1337.32400000 -71.00000000 1621.89100000
v 1350.00000000 -51.00000000 1623.00000000
v 1350.00000000 -71.00000000 1623.00000000
v 1325.03300000 -51.00000000 1618.59800000
v 1337.32400000 -51.00000000 1621.89100000
v 1325.03300000 -71.00000000 1618.59800000
v 1313.50000000 -71.00000000 1613.22000000
v 1313.50000000 -51.00000000 1613.22000000
v 1303.07700000 -71.00000000 1605.92100000
v 1303.07700000 -51.00000000 1605.92100000
v 1294.07900000 -71.00000000 1596.92300000
v 1294.07900000 -51.00000000 1596.92300000
v 1286.78000000 -71.00000000 1586.50000000
v 1281.40200000 -51.00000000 1574.96700000
v 1286.78000000 -51.00000000 1586.50000000
v 1281.40200000 -71.00000000 1574.96700000
v 1278.10900000 -51.00000000 1562.67600000
v 1278.10900000 -71.00000000 1562.67600000
v 1277.00000000 -71.00000000 1550.00000000
v 1278.10900000 -51.00000000 1537.32400000
v 1277.00000000 -51.00000000 1550.00000000
v 1278.10900000 -71.00000000 1537.32400000
v 1281.40200000 -51.00000000 1525.03300000
v 1281.40200000 -71.00000000 1525.03300000
v 1286.78000000 -71.00000000 1513.50000000
v 1286.78000000 -51.00000000 1513.50000000
v 1294.07900000 -71.00000000 1503.07700000
v 1294.07900000 -51.00000000 1503.07700000
v 1303.07700000 -71.00000000 1494.07900000
v 1303.07700000 -51.00000000 1494.07900000
v 1313.50000000 -71.00000000 1486.78000000
v 1313.50000000 -51.00000000 1486.78000000
v 1325.03300000 -71.00000000 1481.40200000
v 1337.32400000 -51.00000000 1478.10900000
v 1325.03300000 -51.00000000 1481.40200000
v 1337.32400000 -71.00000000 1478.10900000
v 1350.00000000 -71.00000000 1477.00000000
v 1350.00000000 -51.00000000 1477.00000000
v 1315.00000000 51.00000000 1550.00000000
v 1316.01700000 48.00000000 1558.37600000
v 1315.00000000 48.00000000 1550.00000000
v 1316.01700000 51.00000000 1558.37600000
v 1319.00900000 48.00000000 1566.26500000
v 1319.00900000 51.00000000 1566.26500000
v 1323.80200000 48.00000000 1573.20900000
v 1323.80200000 51.00000000 1573.20900000
v 1330.11800000 48.00000000 1578.80400000
v 1330.11800000 51.00000000 1578.80400000
v 1337.58900000 48.00000000 1582.72600000
v 1337.58900000 51.00000000 1582.72600000
v 1345.78100000 48.00000000 1584.74500000
v 1345.78100000 51.00000000 1584.74500000
v 1354.21900000 48.00000000 1584.74500000
v 1354.21900000 51.00000000 1584.74500000
v 1362.41100000 51.00000000 1582.72600000
v 1362.41100000 48.00000000 1582.72600000
v 1369.88200000 48.00000000 1578.80400000
v 1369.88200000 51.00000000 1578.80400000
v 1376.19800000 48.00000000 1573.20900000
v 1376.19800000 51.00000000 1573.20900000
v 1380.99100000 48.00000000 1566.26500000
v 1380.99100000 51.00000000 1566.26500000
v 1383.98300000 48.00000000 1558.37600000
v 1383.98300000 51.00000000 1558.37600000
v 1385.00000000 51.00000000 1550.00000000
v 1385.00000000 48.00000000 1550.00000000
v 1423.35500000 -0.00000000 1573.94400000
v 1423.51300000 -3.00000000 1573.95400000
v 1423.51300000 -3.00000000 1526.04600000
v 1423.35500000 -0.00000000 1526.05600000
v 1421.00000000 -8.03635200 1569.40100000
v 1415.00000000 -3.00000000 1563.16200000
v 1415.00000000 -6.10130200 1562.04300000
v 1421.00000000 -14.84924000 1564.84900000
v 1415.00000000 -8.83863100 1560.20400000
v 1415.00000000 -11.04869000 1557.75700000
v 1421.00000000 -19.40147000 1558.03600000
v 1415.00000000 -12.59964000 1554.84800000
v 1415.00000000 -13.39895000 1551.64900000
v 1421.00000000 -21.00000000 1550.00000000
v 1415.00000000 -13.39895000 1548.35100000
v 1421.00000000 -19.40147000 1541.96400000
v 1415.00000000 -12.59964000 1545.15200000
v 1415.00000000 -11.04869000 1542.24300000
v 1421.00000000 -14.84924000 1535.15100000
v 1415.00000000 -8.83863100 1539.79600000
v 1415.00000000 -6.10130200 1537.95700000
v 1421.00000000 -8.03635200 1530.59900000
v 1415.00000000 -3.00000000 1536.83800000
v 1426.13900000 13.26765000 1574.00000000
v 1425.00000000 10.00000000 1574.00000000
v 1423.79900000 5.06227900 1573.97000000
v 1447.78800000 95.00000000 1601.62200000
v 1455.18600000 95.00000000 1599.03400000
v 1461.82200000 95.00000000 1594.86400000
v 1474.12200000 95.00000000 1575.28800000
v 1467.36400000 95.00000000 1589.32200000
v 1471.53400000 95.00000000 1582.68600000
v 1440.00000000 95.00000000 1602.50000000
v 1475.00000000 95.00000000 1567.50000000
v 1467.36400000 95.00000000 1510.67800000
v 1474.12200000 95.00000000 1524.71200000
v 1471.53400000 95.00000000 1517.31400000
v 1461.82200000 95.00000000 1505.13600000
v 1447.78800000 95.00000000 1498.37800000
v 1455.18600000 95.00000000 1500.96600000
v 1475.00000000 95.00000000 1532.50000000
v 1440.00000000 95.00000000 1497.50000000
v 1317.31400000 95.00000000 1599.03400000
v 1324.71200000 95.00000000 1601.62200000
v 1332.50000000 95.00000000 1602.50000000
v 1305.13600000 95.00000000 1589.32200000
v 1310.67800000 95.00000000 1594.86400000
v 1300.96600000 95.00000000 1582.68600000
v 1298.37800000 95.00000000 1575.28800000
v 1297.50000000 95.00000000 1567.50000000
v 1332.50000000 95.00000000 1497.50000000
v 1297.50000000 95.00000000 1532.50000000
v 1324.71200000 95.00000000 1498.37800000
v 1298.37800000 95.00000000 1524.71200000
v 1300.96600000 95.00000000 1517.31400000
v 1305.13600000 95.00000000 1510.67800000
v 1317.31400000 95.00000000 1500.96600000
v 1310.67800000 95.00000000 1505.13600000
v 1475.00000000 76.00000000 1532.50000000
v 1475.00000000 76.00000000 1567.50000000
v 1474.20100000 76.00000000 1525.06500000
v 1471.84100000 76.00000000 1517.96900000
v 1468.02700000 76.00000000 1511.53600000
v 1462.93400000 76.00000000 1506.06100000
v 1456.79400000 76.00000000 1501.79200000
v 1451.82600000 74.53621000 1499.55800000
v 1445.09700000 73.36747000 1497.87300000
v 1445.09700000 67.00000000 1497.87300000
v 1443.40500000 67.00000000 1497.66600000
v 1441.70400000 67.00000000 1497.54200000
v 1440.00000000 67.00000000 1497.50000000
v 1448.53800000 73.84868000 1498.55700000
v 1350.00000000 67.00000000 1497.50000000
v 1298.31300000 85.00000000 1525.00000000
v 1297.86200000 85.00000000 1527.47800000
v 1297.59100000 85.00000000 1529.98300000
v 1297.50000000 85.00000000 1532.50000000
v 1297.50000000 85.00000000 1567.50000000
v 1297.59100000 85.00000000 1570.01700000
v 1297.86200000 85.00000000 1572.52200000
v 1300.32900000 83.19398000 1581.28600000
v 1298.31300000 85.00000000 1575.00000000
v 1298.31300000 79.41892000 1575.00000000
v 1303.04500000 85.28327000 1586.40600000
v 1306.45400000 86.20121000 1590.88000000
v 1310.14300000 86.08129000 1594.42900000
v 1313.83500000 85.20743000 1597.10800000
v 1317.67700000 83.69361000 1599.20600000
v 1321.54300000 81.64867000 1600.74100000
v 1326.55200000 78.29963000 1601.99100000
v 1329.58600000 75.90040000 1602.37900000
v 1332.50000000 73.33025000 1602.50000000
v 1350.00000000 67.00000000 1602.50000000
v 1440.00000000 67.00000000 1602.50000000
v 1346.69200000 65.30560000 1602.50000000
v 1350.00000000 65.00000000 1602.50000000
v 1343.50400000 66.17406000 1602.50000000
v 1337.64900000 69.20396000 1602.50000000
v 1445.09700000 73.36747000 1602.12700000
v 1441.70400000 67.00000000 1602.45800000
v 1443.40500000 67.00000000 1602.33400000
v 1445.09700000 67.00000000 1602.12700000
v 1449.20700000 73.97061000 1601.26800000
v 1453.10100000 74.86275000 1599.95600000
v 1456.79400000 76.00000000 1598.20800000
v 1462.93400000 76.00000000 1593.93900000
v 1468.02700000 76.00000000 1588.46400000
v 1471.84100000 76.00000000 1582.03100000
v 1474.20100000 76.00000000 1574.93500000
v 1480.00000000 76.00000000 1501.79200000
v 1480.00000000 76.00000000 1598.20800000
v 1403.61100000 67.00000000 1522.29600000
v 1397.70800000 67.00000000 1528.08700000
v 1392.71000000 67.00000000 1519.47000000
v 1410.70700000 67.00000000 1518.05100000
v 1386.17400000 67.00000000 1511.95200000
v 1418.60100000 67.00000000 1515.59000000
v 1435.00000000 67.00000000 1512.29300000
v 1435.00000000 67.00000000 1516.45900000
v 1426.85200000 67.00000000 1515.04900000
v 1378.33600000 67.00000000 1505.80300000
v 1359.91700000 67.00000000 1498.44500000
v 1369.47700000 67.00000000 1501.24700000
v 1451.79600000 65.52706000 1488.30600000
v 1455.58300000 59.97671000 1482.89700000
v 1459.01200000 54.00000000 1478.00000000
v 1435.00000000 -51.00000000 1512.29300000
v 1456.21100000 -51.00000000 1482.00000000
v 1459.01200000 -54.00000000 1478.00000000
v 1456.21100000 -58.95761000 1482.00000000
v 1480.00000000 62.27484000 1485.02400000
v 1480.00000000 54.00000000 1478.00000000
v 1480.00000000 69.64390000 1492.99400000
v 1298.12100000 65.00000000 1558.05000000
v 1395.53400000 48.00000000 1560.39300000
v 1394.30300000 50.00000000 1566.81400000
v 1392.07900000 48.00000000 1570.26400000
v 1396.00800000 50.00000000 1561.34700000
v 1397.04000000 50.00000000 1555.71500000
v 1300.69400000 60.73373000 1563.21200000
v 1304.46600000 48.00000000 1560.39300000
v 1307.92100000 48.00000000 1570.26400000
v 1303.00000000 65.00000000 1573.39300000
v 1299.96900000 65.00000000 1565.91000000
v 1305.79300000 60.73373000 1575.52300000
v 1313.48500000 48.00000000 1579.12000000
v 1303.00000000 67.15696000 1575.00000000
v 1302.03400000 73.46746000 1577.69300000
v 1313.90500000 60.73373000 1586.09500000
v 1320.88000000 48.00000000 1586.51500000
v 1310.83600000 73.46746000 1589.16400000
v 1324.47700000 60.73373000 1594.20700000
v 1329.73600000 48.00000000 1592.07900000
v 1322.30700000 73.46746000 1597.96600000
v 1336.78800000 60.73373000 1599.30600000
v 1339.60700000 48.00000000 1595.53400000
v 1350.00000000 60.73373000 1601.04600000
v 1350.00000000 48.00000000 1596.70500000
v 1360.39300000 48.00000000 1595.53400000
v 1359.91700000 65.00000000 1601.55500000
v 1363.21200000 60.73373000 1599.30600000
v 1370.26400000 48.00000000 1592.07900000
v 1369.47700000 65.00000000 1598.75300000
v 1375.52300000 60.73373000 1594.20700000
v 1379.12000000 48.00000000 1586.51500000
v 1378.33600000 65.00000000 1594.19700000
v 1386.09500000 60.73373000 1586.09500000
v 1386.51500000 48.00000000 1579.12000000
v 1392.71000000 65.00000000 1580.53000000
v 1386.17400000 65.00000000 1588.04800000
v 1394.20700000 60.73373000 1575.52300000
v 1397.70800000 65.00000000 1571.91300000
v 1290.00000000 85.00000000 1575.00000000
v 1290.00000000 85.00000000 1525.00000000
v 1290.00000000 65.00000000 1525.00000000
v 1303.00000000 65.00000000 1525.00000000
v 1290.00000000 65.00000000 1575.00000000
v 1303.00000000 65.00000000 1575.00000000
v 1403.61100000 67.00000000 1577.70400000
v 1392.71000000 67.00000000 1580.53000000
v 1397.70800000 67.00000000 1571.91300000
v 1410.70700000 67.00000000 1581.94900000
v 1386.17400000 67.00000000 1588.04800000
v 1418.60100000 67.00000000 1584.41000000
v 1378.33600000 67.00000000 1594.19700000
v 1369.47700000 67.00000000 1598.75300000
v 1359.91700000 67.00000000 1601.55500000
v 1426.85200000 67.00000000 1584.95100000
v 1435.00000000 67.00000000 1587.70700000
v 1435.00000000 67.00000000 1583.54100000
v 1451.72900000 65.61734000 1611.59800000
v 1480.00000000 67.71864000 1609.28100000
v 1480.00000000 57.83890000 1618.95400000
v 1457.58900000 56.60947000 1619.96700000
v 1462.51300000 46.59399000 1627.00000000
v 1480.00000000 46.59399000 1627.00000000
v 1435.00000000 -51.00000000 1587.70700000
v 1456.21100000 -51.00000000 1618.00000000
v 1462.51300000 -46.59399000 1627.00000000
v 1459.54600000 -52.96730000 1622.76300000
v 1456.21100000 -58.95761000 1618.00000000
v 1480.00000000 -46.59399000 1627.00000000
v 1480.00000000 -11.66809000 1612.41900000
v 1480.00000000 -22.93885000 1609.21200000
v 1480.00000000 -33.42844000 1603.98900000
v 1480.00000000 -55.59068000 1620.77900000
v 1480.00000000 -42.77967000 1596.92700000
v 1480.00000000 -63.76627000 1613.51300000
v 1480.00000000 -50.67409000 1588.26700000
v 1480.00000000 -71.00000000 1605.30800000
v 1480.00000000 -56.84287000 1578.30400000
v 1480.00000000 -61.07593000 1567.37800000
v 1480.00000000 -63.22912000 1555.85900000
v 1480.00000000 -54.00000000 1478.00000000
v 1480.00000000 -33.42844000 1496.01100000
v 1480.00000000 -42.77967000 1503.07300000
v 1480.00000000 -22.93885000 1490.78800000
v 1480.00000000 -11.66809000 1487.58100000
v 1480.00000000 -71.00000000 1494.69200000
v 1480.00000000 -61.07593000 1532.62200000
v 1480.00000000 -63.22912000 1544.14100000
v 1480.00000000 -56.84287000 1521.69600000
v 1480.00000000 -50.67409000 1511.73300000
v 1480.00000000 -60.15230000 1483.05400000
v 1480.00000000 -65.83379000 1488.63300000
v 1435.00000000 50.00000000 1516.45900000
v 1427.21000000 50.00000000 1515.07000000
v 1419.30700000 50.00000000 1515.46600000
v 1411.69400000 50.00000000 1517.62800000
v 1404.76200000 50.00000000 1521.44400000
v 1398.86500000 50.00000000 1526.72000000
v 1435.00000000 33.14214000 1515.00000000
v 1435.00000000 33.14214000 1526.00000000
v 1435.00000000 50.00000000 1526.00000000
v 1435.00000000 3.24739900 1521.68600000
v 1435.00000000 4.85786400 1521.91700000
v 1435.00000000 4.85786400 1515.00000000
v 1435.00000000 1.62635000 1521.54600000
v 1435.00000000 50.00000000 1583.54100000
v 1435.00000000 50.00000000 1574.00000000
v 1435.00000000 4.85786400 1585.00000000
v 1277.18800000 -51.00000000 1602.90100000
v 1286.36000000 -51.00000000 1613.64000000
v 1297.09900000 -51.00000000 1622.81200000
v 1309.14100000 -51.00000000 1630.19100000
v 1269.80900000 -51.00000000 1590.85900000
v 1322.18800000 -51.00000000 1635.59500000
v 1264.40500000 -51.00000000 1577.81200000
v 1335.92100000 -51.00000000 1638.89200000
v 1261.10800000 -51.00000000 1564.07900000
v 1260.00000000 -51.00000000 1550.00000000
v 1261.10800000 -51.00000000 1535.92100000
v 1362.67600000 -51.00000000 1621.89100000
v 1264.40500000 -51.00000000 1522.18800000
v 1374.96700000 -51.00000000 1618.59800000
v 1269.80900000 -51.00000000 1509.14100000
v 1386.50000000 -51.00000000 1613.22000000
v 1277.18800000 -51.00000000 1497.09900000
v 1396.92300000 -51.00000000 1605.92100000
v 1286.36000000 -51.00000000 1486.36000000
v 1405.92100000 -51.00000000 1596.92300000
v 1297.09900000 -51.00000000 1477.18800000
v 1309.14100000 -51.00000000 1469.80900000
v 1413.22000000 -51.00000000 1586.50000000
v 1418.59800000 -51.00000000 1574.96700000
v 1322.18800000 -51.00000000 1464.40500000
v 1421.89100000 -51.00000000 1562.67600000
v 1423.00000000 -51.00000000 1550.00000000
v 1335.92100000 -51.00000000 1461.10800000
v 1362.67600000 -51.00000000 1478.10900000
v 1374.96700000 -51.00000000 1481.40200000
v 1386.50000000 -51.00000000 1486.78000000
v 1421.89100000 -51.00000000 1537.32400000
v 1418.59800000 -51.00000000 1525.03300000
v 1413.22000000 -51.00000000 1513.50000000
v 1405.92100000 -51.00000000 1503.07700000
v 1396.92300000 -51.00000000 1494.07900000
v 1460.00000000 -71.00000000 1494.69200000
v 1454.80400000 -68.00000000 1491.04200000
v 1427.21000000 50.00000000 1584.93000000
v 1425.00000000 50.00000000 1574.00000000
v 1419.30700000 50.00000000 1584.53400000
v 1419.25600000 50.00000000 1573.30300000
v 1411.69400000 50.00000000 1582.37200000
v 1413.84700000 50.00000000 1571.25100000
v 1404.76200000 50.00000000 1578.55600000
v 1409.08500000 50.00000000 1567.96400000
v 1398.86500000 50.00000000 1573.28000000
v 1405.24800000 50.00000000 1563.63400000
v 1402.56000000 50.00000000 1558.51100000
v 1401.17500000 50.00000000 1552.89300000
v 1401.17500000 50.00000000 1547.10700000
v 1425.00000000 50.00000000 1526.00000000
v 1402.56000000 50.00000000 1541.48900000
v 1419.25600000 50.00000000 1526.69700000
v 1405.24800000 50.00000000 1536.36600000
v 1413.84700000 50.00000000 1528.74900000
v 1409.08500000 50.00000000 1532.03600000
v 1383.98300000 48.00000000 1541.62400000
v 1380.99100000 48.00000000 1533.73500000
v 1376.19800000 48.00000000 1526.79100000
v 1369.88200000 48.00000000 1521.19600000
v 1362.41100000 48.00000000 1517.27400000
v 1354.21900000 48.00000000 1515.25500000
v 1345.78100000 48.00000000 1515.25500000
v 1337.58900000 48.00000000 1517.27400000
v 1316.01700000 48.00000000 1541.62400000
v 1330.11800000 48.00000000 1521.19600000
v 1319.00900000 48.00000000 1533.73500000
v 1323.80200000 48.00000000 1526.79100000
v 1454.80400000 -68.00000000 1608.95800000
v 1460.00000000 -71.00000000 1605.30800000
v 1463.00000000 -11.66809000 1612.41900000
v 1463.00000000 -22.93885000 1609.21200000
v 1463.00000000 -33.42844000 1603.98900000
v 1463.00000000 -42.77967000 1596.92700000
v 1463.00000000 -50.67409000 1588.26700000
v 1463.00000000 -56.84287000 1578.30400000
v 1463.00000000 -61.07593000 1567.37800000
v 1463.00000000 -63.22912000 1555.85900000
v 1463.00000000 -63.22912000 1544.14100000
v 1463.00000000 -61.07593000 1532.62200000
v 1463.00000000 -56.84287000 1521.69600000
v 1463.00000000 -50.67409000 1511.73300000
v 1463.00000000 -42.77967000 1503.07300000
v 1463.00000000 -33.42844000 1496.01100000
v 1463.00000000 -22.93885000 1490.78800000
v 1463.00000000 -11.66809000 1487.58100000
v 1425.12800000 17.04493000 1574.00000000
v 1425.51000000 15.12322000 1574.00000000
v 1425.45200000 15.34431000 1585.00000000
v 1426.78200000 11.90908000 1585.00000000
v 1428.90900000 8.90146900 1585.00000000
v 1431.70400000 6.50284700 1585.00000000
v 1428.81300000 9.00738100 1522.96100000
v 1427.00000000 3.93923800 1521.77400000
v 1427.00000000 7.80285600 1522.58900000
v 1427.00000000 11.51669000 1523.93100000
v 1431.18300000 6.86484200 1522.33900000
v 1433.00600000 5.73068500 1522.08200000
v 1431.70400000 6.50284700 1515.00000000
v 1425.51000000 15.12322000 1526.00000000
v 1426.13900000 13.26765000 1526.00000000
v 1428.90900000 8.90146900 1515.00000000
v 1426.78200000 11.90908000 1515.00000000
v 1425.45200000 15.34431000 1515.00000000
v 1425.12800000 17.04493000 1526.00000000
v 1425.00000000 19.00000000 1515.00000000
v 1425.00000000 19.00000000 1526.00000000
v 1425.45200000 22.65569000 1515.00000000
v 1425.45200000 22.65569000 1526.00000000
v 1426.78200000 26.09092000 1515.00000000
v 1426.78200000 26.09092000 1526.00000000
v 1428.90900000 29.09853000 1515.00000000
v 1428.90900000 29.09853000 1526.00000000
v 1431.70400000 31.49715000 1515.00000000
v 1431.70400000 31.49715000 1526.00000000
v 1335.92100000 -71.00000000 1638.89200000
v 1322.18800000 -71.00000000 1635.59500000
v 1309.14100000 -71.00000000 1630.19100000
v 1297.09900000 -71.00000000 1622.81200000
v 1286.36000000 -71.00000000 1613.64000000
v 1277.18800000 -71.00000000 1602.90100000
v 1269.80900000 -71.00000000 1590.85900000
v 1264.40500000 -71.00000000 1577.81200000
v 1261.10800000 -71.00000000 1564.07900000
v 1260.00000000 -71.00000000 1550.00000000
v 1261.10800000 -71.00000000 1535.92100000
v 1264.40500000 -71.00000000 1522.18800000
v 1269.80900000 -71.00000000 1509.14100000
v 1277.18800000 -71.00000000 1497.09900000
v 1286.36000000 -71.00000000 1486.36000000
v 1297.09900000 -71.00000000 1477.18800000
v 1309.14100000 -71.00000000 1469.80900000
v 1322.18800000 -71.00000000 1464.40500000
v 1335.92100000 -71.00000000 1461.10800000
v 1362.67600000 -71.00000000 1478.10900000
v 1374.96700000 -71.00000000 1481.40200000
v 1386.50000000 -71.00000000 1486.78000000
v 1396.92300000 -71.00000000 1494.07900000
v 1405.92100000 -71.00000000 1503.07700000
v 1413.22000000 -71.00000000 1513.50000000
v 1418.59800000 -71.00000000 1525.03300000
v 1421.89100000 -71.00000000 1537.32400000
v 1423.00000000 -71.00000000 1550.00000000
v 1421.89100000 -71.00000000 1562.67600000
v 1418.59800000 -71.00000000 1574.96700000
v 1413.22000000 -71.00000000 1586.50000000
v 1405.92100000 -71.00000000 1596.92300000
v 1396.92300000 -71.00000000 1605.92100000
v 1386.50000000 -71.00000000 1613.22000000
v 1374.96700000 -71.00000000 1618.59800000
v 1362.67600000 -71.00000000 1621.89100000
v 1425.00000000 10.00000000 1526.00000000
v 1423.79900000 5.06227900 1526.03000000
v 1418.04200000 -3.00000000 1527.03100000
v 1412.94500000 -3.00000000 1529.24700000
v 1408.49400000 -3.00000000 1532.57700000
v 1404.92900000 -3.00000000 1536.84100000
v 1402.44000000 -3.00000000 1541.81100000
v 1401.16100000 -3.00000000 1547.22100000
v 1401.16100000 -3.00000000 1552.77900000
v 1402.44000000 -3.00000000 1558.18900000
v 1404.92900000 -3.00000000 1563.15900000
v 1408.49400000 -3.00000000 1567.42300000
v 1412.94500000 -3.00000000 1570.75300000
v 1418.04200000 -3.00000000 1572.96900000
v 1383.98300000 51.00000000 1541.62400000
v 1380.99100000 51.00000000 1533.73500000
v 1376.19800000 51.00000000 1526.79100000
v 1369.88200000 51.00000000 1521.19600000
v 1362.41100000 51.00000000 1517.27400000
v 1354.21900000 51.00000000 1515.25500000
v 1345.78100000 51.00000000 1515.25500000
v 1337.58900000 51.00000000 1517.27400000
v 1330.11800000 51.00000000 1521.19600000
v 1323.80200000 51.00000000 1526.79100000
v 1319.00900000 51.00000000 1533.73500000
v 1316.01700000 51.00000000 1541.62400000
v 1447.78800000 96.00000000 1498.37800000
v 1455.18600000 96.00000000 1500.96600000
v 1461.82200000 96.00000000 1505.13600000
v 1474.12200000 96.00000000 1524.71200000
v 1467.36400000 96.00000000 1510.67800000
v 1471.53400000 96.00000000 1517.31400000
v 1440.00000000 96.00000000 1497.50000000
v 1475.00000000 96.00000000 1532.50000000
v 1475.00000000 96.00000000 1567.50000000
v 1461.82200000 96.00000000 1594.86400000
v 1471.53400000 96.00000000 1582.68600000
v 1467.36400000 96.00000000 1589.32200000
v 1474.12200000 96.00000000 1575.28800000
v 1447.78800000 96.00000000 1601.62200000
v 1455.18600000 96.00000000 1599.03400000
v 1440.00000000 96.00000000 1602.50000000
v 1332.50000000 96.00000000 1497.50000000
v 1317.31400000 96.00000000 1500.96600000
v 1324.71200000 96.00000000 1498.37800000
v 1310.67800000 96.00000000 1505.13600000
v 1305.13600000 96.00000000 1510.67800000
v 1298.37800000 96.00000000 1524.71200000
v 1300.96600000 96.00000000 1517.31400000
v 1297.50000000 96.00000000 1532.50000000
v 1297.50000000 96.00000000 1567.50000000
v 1332.50000000 96.00000000 1602.50000000
v 1298.37800000 96.00000000 1575.28800000
v 1317.31400000 96.00000000 1599.03400000
v 1324.71200000 96.00000000 1601.62200000
v 1305.13600000 96.00000000 1589.32200000
v 1300.96600000 96.00000000 1582.68600000
v 1310.67800000 96.00000000 1594.86400000
v 1440.00000000 111.00000000 1602.50000000
v 1332.50000000 111.00000000 1602.50000000
v 1324.71200000 111.00000000 1601.62200000
v 1317.31400000 111.00000000 1599.03400000
v 1310.67800000 111.00000000 1594.86400000
v 1305.13600000 111.00000000 1589.32200000
v 1300.96600000 111.00000000 1582.68600000
v 1298.37800000 111.00000000 1575.28800000
v 1297.50000000 111.00000000 1567.50000000
v 1297.50000000 111.00000000 1532.50000000
v 1298.37800000 111.00000000 1524.71200000
v 1300.96600000 111.00000000 1517.31400000
v 1305.13600000 111.00000000 1510.67800000
v 1310.67800000 111.00000000 1505.13600000
v 1317.31400000 111.00000000 1500.96600000
v 1324.71200000 111.00000000 1498.37800000
v 1332.50000000 111.00000000 1497.50000000
v 1440.00000000 111.00000000 1497.50000000
v 1447.78800000 111.00000000 1498.37800000
v 1455.18600000 111.00000000 1500.96600000
v 1461.82200000 111.00000000 1505.13600000
v 1467.36400000 111.00000000 1510.67800000
v 1471.53400000 111.00000000 1517.31400000
v 1474.12200000 111.00000000 1524.71200000
v 1475.00000000 111.00000000 1532.50000000
v 1475.00000000 111.00000000 1567.50000000
v 1474.12200000 111.00000000 1575.28800000
v 1471.53400000 111.00000000 1582.68600000
v 1467.36400000 111.00000000 1589.32200000
v 1461.82200000 111.00000000 1594.86400000
v 1455.18600000 111.00000000 1599.03400000
v 1447.78800000 111.00000000 1601.62200000
v 1357.53800000 -51.00000000 1519.41500000
v 1350.00000000 -38.00000000 1518.50000000
v 1350.00000000 -51.00000000 1518.50000000
v 1357.53800000 -38.00000000 1519.41500000
v 1364.63900000 -51.00000000 1522.10800000
v 1364.63900000 -38.00000000 1522.10800000
v 1370.88800000 -51.00000000 1526.42200000
v 1370.88800000 -38.00000000 1526.42200000
v 1375.92400000 -51.00000000 1532.10600000
v 1375.92400000 -38.00000000 1532.10600000
v 1379.45300000 -51.00000000 1538.83000000
v 1379.45300000 -38.00000000 1538.83000000
v 1381.27000000 -51.00000000 1546.20300000
v 1381.27000000 -38.00000000 1546.20300000
v 1381.27000000 -51.00000000 1553.79700000
v 1381.27000000 -38.00000000 1553.79700000
v 1379.45300000 -51.00000000 1561.17000000
v 1379.45300000 -38.00000000 1561.17000000
v 1375.92400000 -51.00000000 1567.89400000
v 1375.92400000 -38.00000000 1567.89400000
v 1370.88800000 -51.00000000 1573.57800000
v 1364.63900000 -38.00000000 1577.89200000
v 1370.88800000 -38.00000000 1573.57800000
v 1364.63900000 -51.00000000 1577.89200000
v 1357.53800000 -51.00000000 1580.58500000
v 1357.53800000 -38.00000000 1580.58500000
v 1350.00000000 -51.00000000 1581.50000000
v 1350.00000000 -38.00000000 1581.50000000
v 1338.33200000 -48.20000000 1612.41900000
v 1350.00000000 -38.00000000 1613.50000000
v 1338.33200000 -38.00000000 1612.41900000
v 1350.00000000 -48.20000000 1613.50000000
v 1327.06100000 -48.20000000 1609.21200000
v 1327.06100000 -38.00000000 1609.21200000
v 1316.57200000 -48.20000000 1603.98900000
v 1316.57200000 -38.00000000 1603.98900000
v 1307.22000000 -48.20000000 1596.92700000
v 1307.22000000 -38.00000000 1596.92700000
v 1299.32600000 -48.20000000 1588.26700000
v 1299.32600000 -38.00000000 1588.26700000
v 1293.15700000 -48.20000000 1578.30400000
v 1293.15700000 -38.00000000 1578.30400000
v 1288.92400000 -48.20000000 1567.37800000
v 1288.92400000 -38.00000000 1567.37800000
v 1286.77100000 -48.20000000 1555.85900000
v 1286.77100000 -38.00000000 1555.85900000
v 1286.77100000 -48.20000000 1544.14100000
v 1286.77100000 -38.00000000 1544.14100000
v 1288.92400000 -38.00000000 1532.62200000
v 1288.92400000 -48.20000000 1532.62200000
v 1293.15700000 -48.20000000 1521.69600000
v 1293.15700000 -38.00000000 1521.69600000
v 1299.32600000 -48.20000000 1511.73300000
v 1299.32600000 -38.00000000 1511.73300000
v 1307.22000000 -38.00000000 1503.07300000
v 1307.22000000 -48.20000000 1503.07300000
v 1316.57200000 -38.00000000 1496.01100000
v 1316.57200000 -48.20000000 1496.01100000
v 1327.06100000 -48.20000000 1490.78800000
v 1327.06100000 -38.00000000 1490.78800000
v 1338.33200000 -38.00000000 1487.58100000
v 1338.33200000 -48.20000000 1487.58100000
v 1350.00000000 -48.20000000 1486.50000000
v 1350.00000000 -38.00000000 1486.50000000
v 1350.00000000 -61.00000000 1622.95000000
v 1350.00000000 -48.20000000 1622.95000000
v 1337.33200000 -48.20000000 1621.84200000
v 1337.33200000 -61.00000000 1621.84200000
v 1325.05000000 -48.20000000 1618.55100000
v 1325.05000000 -61.00000000 1618.55100000
v 1313.52500000 -48.20000000 1613.17700000
v 1313.52500000 -61.00000000 1613.17700000
v 1303.10900000 -48.20000000 1605.88300000
v 1303.10900000 -61.00000000 1605.88300000
v 1294.11700000 -48.20000000 1596.89100000
v 1294.11700000 -61.00000000 1596.89100000
v 1286.82300000 -48.20000000 1586.47500000
v 1286.82300000 -61.00000000 1586.47500000
v 1281.44900000 -48.20000000 1574.95000000
v 1281.44900000 -61.00000000 1574.95000000
v 1278.15800000 -48.20000000 1562.66800000
v 1278.15800000 -61.00000000 1562.66800000
v 1277.05000000 -48.20000000 1550.00000000
v 1277.05000000 -61.00000000 1550.00000000
v 1278.15800000 -61.00000000 1537.33200000
v 1278.15800000 -48.20000000 1537.33200000
v 1281.44900000 -48.20000000 1525.05000000
v 1281.44900000 -61.00000000 1525.05000000
v 1286.82300000 -48.20000000 1513.52500000
v 1286.82300000 -61.00000000 1513.52500000
v 1294.11700000 -48.20000000 1503.10900000
v 1294.11700000 -61.00000000 1503.10900000
v 1303.10900000 -61.00000000 1494.11700000
v 1303.10900000 -48.20000000 1494.11700000
v 1313.52500000 -48.20000000 1486.82300000
v 1313.52500000 -61.00000000 1486.82300000
v 1325.05000000 -61.00000000 1481.44900000
v 1325.05000000 -48.20000000 1481.44900000
v 1337.33200000 -48.20000000 1478.15800000
v 1337.33200000 -61.00000000 1478.15800000
v 1350.00000000 -61.00000000 1477.05000000
v 1350.00000000 -48.20000000 1477.05000000
v 1350.00000000 -61.00000000 1623.00000000
v 1337.32400000 -61.00000000 1621.89100000
v 1325.03300000 -61.00000000 1618.59800000
v 1313.50000000 -61.00000000 1613.22000000
v 1303.07700000 -61.00000000 1605.92100000
v 1294.07900000 -61.00000000 1596.92300000
v 1286.78000000 -61.00000000 1586.50000000
v 1281.40200000 -61.00000000 1574.96700000
v 1278.10900000 -61.00000000 1562.67600000
v 1277.00000000 -61.00000000 1550.00000000
v 1278.10900000 -61.00000000 1537.32400000
v 1281.40200000 -61.00000000 1525.03300000
v 1286.78000000 -61.00000000 1513.50000000
v 1294.07900000 -61.00000000 1503.07700000
v 1303.07700000 -61.00000000 1494.07900000
v 1313.50000000 -61.00000000 1486.78000000
v 1325.03300000 -61.00000000 1481.40200000
v 1337.32400000 -61.00000000 1478.10900000
v 1350.00000000 -61.00000000 1477.00000000
v 1350.00000000 -91.00000000 1634.50000000
v 1350.00000000 -71.00000000 1634.50000000
v 1336.09200000 -71.00000000 1633.34800000
v 1336.09200000 -91.00000000 1633.34800000
v 1322.56300000 -71.00000000 1629.92200000
v 1322.56300000 -91.00000000 1629.92200000
v 1309.78200000 -71.00000000 1624.31600000
v 1309.78200000 -91.00000000 1624.31600000
v 1298.09900000 -71.00000000 1616.68200000
v 1298.09900000 -91.00000000 1616.68200000
v 1287.83100000 -71.00000000 1607.23000000
v 1287.83100000 -91.00000000 1607.23000000
v 1279.25900000 -71.00000000 1596.21700000
v 1279.25900000 -91.00000000 1596.21700000
v 1272.61700000 -71.00000000 1583.94300000
v 1272.61700000 -91.00000000 1583.94300000
v 1268.08600000 -71.00000000 1570.74400000
v 1268.08600000 -91.00000000 1570.74400000
v 1265.78900000 -71.00000000 1556.97800000
v 1265.78900000 -91.00000000 1556.97800000
v 1265.78900000 -91.00000000 1543.02200000
v 1265.78900000 -71.00000000 1543.02200000
v 1268.08600000 -91.00000000 1529.25600000
v 1268.08600000 -71.00000000 1529.25600000
v 1272.61700000 -71.00000000 1516.05700000
v 1272.61700000 -91.00000000 1516.05700000
v 1279.25900000 -91.00000000 1503.78300000
v 1279.25900000 -71.00000000 1503.78300000
v 1287.83100000 -91.00000000 1492.77000000
v 1287.83100000 -71.00000000 1492.77000000
v 1298.09900000 -71.00000000 1483.31800000
v 1298.09900000 -91.00000000 1483.31800000
v 1309.78200000 -91.00000000 1475.68400000
v 1309.78200000 -71.00000000 1475.68400000
v 1322.56300000 -91.00000000 1470.07800000
v 1322.56300000 -71.00000000 1470.07800000
v 1336.09200000 -91.00000000 1466.65200000
v 1336.09200000 -71.00000000 1466.65200000
v 1350.00000000 -71.00000000 1465.50000000
v 1350.00000000 -91.00000000 1465.50000000
v 1350.00000000 -100.20000000 1623.00000000
v 1350.00000000 -91.00000000 1623.00000000
v 1337.32400000 -91.00000000 1621.89100000
v 1337.32400000 -100.20000000 1621.89100000
v 1325.03300000 -91.00000000 1618.59800000
v 1325.03300000 -100.20000000 1618.59800000
v 1313.50000000 -91.00000000 1613.22000000
v 1313.50000000 -100.20000000 1613.22000000
v 1303.07700000 -91.00000000 1605.92100000
v 1303.07700000 -100.20000000 1605.92100000
v 1294.07900000 -91.00000000 1596.92300000
v 1294.07900000 -100.20000000 1596.92300000
v 1286.78000000 -91.00000000 1586.50000000
v 1286.78000000 -100.20000000 1586.50000000
v 1281.40200000 -91.00000000 1574.96700000
v 1281.40200000 -100.20000000 1574.96700000
v 1278.10900000 -91.00000000 1562.67600000
v 1278.10900000 -100.20000000 1562.67600000
v 1277.00000000 -91.00000000 1550.00000000
v 1277.00000000 -100.20000000 1550.00000000
v 1278.10900000 -91.00000000 1537.32400000
v 1278.10900000 -100.20000000 1537.32400000
v 1281.40200000 -100.20000000 1525.03300000
v 1281.40200000 -91.00000000 1525.03300000
v 1286.78000000 -100.20000000 1513.50000000
v 1286.78000000 -91.00000000 1513.50000000
v 1294.07900000 -91.00000000 1503.07700000
v 1294.07900000 -100.20000000 1503.07700000
v 1303.07700000 -91.00000000 1494.07900000
v 1303.07700000 -100.20000000 1494.07900000
v 1313.50000000 -91.00000000 1486.78000000
v 1313.50000000 -100.20000000 1486.78000000
v 1325.03300000 -91.00000000 1481.40200000
v 1325.03300000 -100.20000000 1481.40200000
v 1337.32400000 -100.20000000 1478.10900000
v 1337.32400000 -91.00000000 1478.10900000
v 1350.00000000 -91.00000000 1477.00000000
v 1350.00000000 -100.20000000 1477.00000000
v 1338.51600000 -100.60000000 1611.43600000
v 1350.00000000 -100.20000000 1612.50000000
v 1338.51600000 -100.20000000 1611.43600000
v 1350.00000000 -100.60000000 1612.50000000
v 1327.42200000 -100.60000000 1608.28000000
v 1327.42200000 -100.20000000 1608.28000000
v 1317.09800000 -100.60000000 1603.13900000
v 1317.09800000 -100.20000000 1603.13900000
v 1307.89400000 -100.60000000 1596.18800000
v 1307.89400000 -100.20000000 1596.18800000
v 1300.12400000 -100.60000000 1587.66500000
v 1300.12400000 -100.20000000 1587.66500000
v 1294.05200000 -100.60000000 1577.85900000
v 1294.05200000 -100.20000000 1577.85900000
v 1289.88600000 -100.60000000 1567.10400000
v 1289.88600000 -100.20000000 1567.10400000
v 1287.76700000 -100.60000000 1555.76700000
v 1287.76700000 -100.20000000 1555.76700000
v 1287.76700000 -100.60000000 1544.23300000
v 1287.76700000 -100.20000000 1544.23300000
v 1289.88600000 -100.60000000 1532.89600000
v 1289.88600000 -100.20000000 1532.89600000
v 1294.05200000 -100.60000000 1522.14100000
v 1294.05200000 -100.20000000 1522.14100000
v 1300.12400000 -100.20000000 1512.33500000
v 1300.12400000 -100.60000000 1512.33500000
v 1307.89400000 -100.60000000 1503.81200000
v 1307.89400000 -100.20000000 1503.81200000
v 1317.09800000 -100.60000000 1496.86100000
v 1317.09800000 -100.20000000 1496.86100000
v 1327.42200000 -100.20000000 1491.72000000
v 1327.42200000 -100.60000000 1491.72000000
v 1338.51600000 -100.60000000 1488.56400000
v 1338.51600000 -100.20000000 1488.56400000
v 1350.00000000 -100.20000000 1487.50000000
v 1350.00000000 -100.60000000 1487.50000000
v 1338.29500000 -103.80000000 1608.84700000
v 1350.00000000 -100.60000000 1610.00000000
v 1338.29500000 -100.60000000 1608.84700000
v 1350.00000000 -103.80000000 1610.00000000
v 1327.03900000 -103.80000000 1605.43300000
v 1327.03900000 -100.60000000 1605.43300000
v 1316.66600000 -103.80000000 1599.88800000
v 1316.66600000 -100.60000000 1599.88800000
v 1307.57400000 -103.80000000 1592.42600000
v 1307.57400000 -100.60000000 1592.42600000
v 1300.11200000 -103.80000000 1583.33400000
v 1300.11200000 -100.60000000 1583.33400000
v 1294.56700000 -103.80000000 1572.96100000
v 1294.56700000 -100.60000000 1572.96100000
v 1291.15300000 -103.80000000 1561.70500000
v 1291.15300000 -100.60000000 1561.70500000
v 1290.00000000 -103.80000000 1550.00000000
v 1290.00000000 -100.60000000 1550.00000000
v 1291.15300000 -103.80000000 1538.29500000
v 1291.15300000 -100.60000000 1538.29500000
v 1294.56700000 -103.80000000 1527.03900000
v 1294.56700000 -100.60000000 1527.03900000
v 1300.11200000 -103.80000000 1516.66600000
v 1300.11200000 -100.60000000 1516.66600000
v 1307.57400000 -103.80000000 1507.57400000
v 1307.57400000 -100.60000000 1507.57400000
v 1316.66600000 -100.60000000 1500.11200000
v 1316.66600000 -103.80000000 1500.11200000
v 1327.03900000 -103.80000000 1494.56700000
v 1327.03900000 -100.60000000 1494.56700000
v 1338.29500000 -103.80000000 1491.15300000
v 1338.29500000 -100.60000000 1491.15300000
v 1350.00000000 -100.60000000 1490.00000000
v 1350.00000000 -103.80000000 1490.00000000
v 1339.27000000 -108.90000000 1603.94300000
v 1350.00000000 -103.80000000 1605.00000000
v 1339.27000000 -103.80000000 1603.94300000
v 1350.00000000 -108.90000000 1605.00000000
v 1328.95200000 -108.90000000 1600.81300000
v 1328.95200000 -103.80000000 1600.81300000
v 1319.44400000 -108.90000000 1595.73100000
v 1319.44400000 -103.80000000 1595.73100000
v 1311.10900000 -108.90000000 1588.89100000
v 1311.10900000 -103.80000000 1588.89100000
v 1304.26900000 -108.90000000 1580.55600000
v 1304.26900000 -103.80000000 1580.55600000
v 1299.18700000 -108.90000000 1571.04800000
v 1299.18700000 -103.80000000 1571.04800000
v 1296.05700000 -108.90000000 1560.73000000
v 1296.05700000 -103.80000000 1560.73000000
v 1295.00000000 -108.90000000 1550.00000000
v 1295.00000000 -103.80000000 1550.00000000
v 1296.05700000 -108.90000000 1539.27000000
v 1296.05700000 -103.80000000 1539.27000000
v 1299.18700000 -108.90000000 1528.95200000
v 1299.18700000 -103.80000000 1528.95200000
v 1304.26900000 -108.90000000 1519.44400000
v 1304.26900000 -103.80000000 1519.44400000
v 1311.10900000 -108.90000000 1511.10900000
v 1311.10900000 -103.80000000 1511.10900000
v 1319.44400000 -108.90000000 1504.26900000
v 1319.44400000 -103.80000000 1504.26900000
v 1328.95200000 -108.90000000 1499.18700000
v 1328.95200000 -103.80000000 1499.18700000
v 1339.27000000 -108.90000000 1496.05700000
v 1339.27000000 -103.80000000 1496.05700000
v 1350.00000000 -103.80000000 1495.00000000
v 1350.00000000 -108.90000000 1495.00000000
v 1392.78000000 -38.00000000 1503.07300000
v 1383.42800000 -38.00000000 1496.01100000
v 1400.67400000 -38.00000000 1511.73300000
v 1406.84300000 -38.00000000 1521.69600000
v 1372.93900000 -38.00000000 1490.78800000
v 1411.07600000 -38.00000000 1532.62200000
v 1361.66800000 -38.00000000 1487.58100000
v 1413.22900000 -38.00000000 1544.14100000
v 1413.22900000 -38.00000000 1555.85900000
v 1411.07600000 -38.00000000 1567.37800000
v 1342.46200000 -38.00000000 1519.41500000
v 1406.84300000 -38.00000000 1578.30400000
v 1335.36100000 -38.00000000 1522.10800000
v 1400.67400000 -38.00000000 1588.26700000
v 1329.11200000 -38.00000000 1526.42200000
v 1392.78000000 -38.00000000 1596.92700000
v 1324.07600000 -38.00000000 1532.10600000
v 1383.42800000 -38.00000000 1603.98900000
v 1320.54700000 -38.00000000 1538.83000000
v 1372.93900000 -38.00000000 1609.21200000
v 1318.73000000 -38.00000000 1546.20300000
v 1361.66800000 -38.00000000 1612.41900000
v 1318.73000000 -38.00000000 1553.79700000
v 1342.46200000 -38.00000000 1580.58500000
v 1320.54700000 -38.00000000 1561.17000000
v 1335.36100000 -38.00000000 1577.89200000
v 1324.07600000 -38.00000000 1567.89400000
v 1329.11200000 -38.00000000 1573.57800000
v 1342.46200000 -51.00000000 1580.58500000
v 1335.36100000 -51.00000000 1577.89200000
v 1329.11200000 -51.00000000 1573.57800000
v 1324.07600000 -51.00000000 1567.89400000
v 1320.54700000 -51.00000000 1561.17000000
v 1318.73000000 -51.00000000 1553.79700000
v 1318.73000000 -51.00000000 1546.20300000
v 1320.54700000 -51.00000000 1538.83000000
v 1324.07600000 -51.00000000 1532.10600000
v 1329.11200000 -51.00000000 1526.42200000
v 1335.36100000 -51.00000000 1522.10800000
v 1342.46200000 -51.00000000 1519.41500000
v 1361.66800000 -48.20000000 1487.58100000
v 1372.93900000 -48.20000000 1490.78800000
v 1383.42800000 -48.20000000 1496.01100000
v 1392.78000000 -48.20000000 1503.07300000
v 1400.67400000 -48.20000000 1511.73300000
v 1406.84300000 -48.20000000 1521.69600000
v 1411.07600000 -48.20000000 1532.62200000
v 1413.22900000 -48.20000000 1544.14100000
v 1413.22900000 -48.20000000 1555.85900000
v 1411.07600000 -48.20000000 1567.37800000
v 1406.84300000 -48.20000000 1578.30400000
v 1400.67400000 -48.20000000 1588.26700000
v 1392.78000000 -48.20000000 1596.92700000
v 1383.42800000 -48.20000000 1603.98900000
v 1372.93900000 -48.20000000 1609.21200000
v 1361.66800000 -48.20000000 1612.41900000
v 1405.88300000 -48.20000000 1503.10900000
v 1396.89100000 -48.20000000 1494.11700000
v 1413.17700000 -48.20000000 1513.52500000
v 1386.47500000 -48.20000000 1486.82300000
v 1418.55100000 -48.20000000 1525.05000000
v 1374.95000000 -48.20000000 1481.44900000
v 1421.84200000 -48.20000000 1537.33200000
v 1362.66800000 -48.20000000 1478.15800000
v 1422.95000000 -48.20000000 1550.00000000
v 1421.84200000 -48.20000000 1562.66800000
v 1418.55100000 -48.20000000 1574.95000000
v 1413.17700000 -48.20000000 1586.47500000
v 1405.88300000 -48.20000000 1596.89100000
v 1396.89100000 -48.20000000 1605.88300000
v 1386.47500000 -48.20000000 1613.17700000
v 1374.95000000 -48.20000000 1618.55100000
v 1362.66800000 -48.20000000 1621.84200000
v 1362.66800000 -61.00000000 1478.15800000
v 1374.95000000 -61.00000000 1481.44900000
v 1386.47500000 -61.00000000 1486.82300000
v 1396.89100000 -61.00000000 1494.11700000
v 1405.88300000 -61.00000000 1503.10900000
v 1413.17700000 -61.00000000 1513.52500000
v 1418.55100000 -61.00000000 1525.05000000
v 1421.84200000 -61.00000000 1537.33200000
v 1422.95000000 -61.00000000 1550.00000000
v 1421.84200000 -61.00000000 1562.66800000
v 1418.55100000 -61.00000000 1574.95000000
v 1413.17700000 -61.00000000 1586.47500000
v 1405.88300000 -61.00000000 1596.89100000
v 1396.89100000 -61.00000000 1605.88300000
v 1386.47500000 -61.00000000 1613.17700000
v 1374.95000000 -61.00000000 1618.55100000
v 1362.66800000 -61.00000000 1621.84200000
v 1405.92100000 -61.00000000 1503.07700000
v 1396.92300000 -61.00000000 1494.07900000
v 1386.50000000 -61.00000000 1486.78000000
v 1413.22000000 -61.00000000 1513.50000000
v 1418.59800000 -61.00000000 1525.03300000
v 1374.96700000 -61.00000000 1481.40200000
v 1362.67600000 -61.00000000 1478.10900000
v 1421.89100000 -61.00000000 1537.32400000
v 1423.00000000 -61.00000000 1550.00000000
v 1421.89100000 -61.00000000 1562.67600000
v 1418.59800000 -61.00000000 1574.96700000
v 1413.22000000 -61.00000000 1586.50000000
v 1405.92100000 -61.00000000 1596.92300000
v 1396.92300000 -61.00000000 1605.92100000
v 1386.50000000 -61.00000000 1613.22000000
v 1374.96700000 -61.00000000 1618.59800000
v 1362.67600000 -61.00000000 1621.89100000
v 1420.74100000 -71.00000000 1503.78300000
v 1412.16900000 -71.00000000 1492.77000000
v 1401.90100000 -71.00000000 1483.31800000
v 1390.21800000 -71.00000000 1475.68400000
v 1427.38300000 -71.00000000 1516.05700000
v 1377.43700000 -71.00000000 1470.07800000
v 1431.91400000 -71.00000000 1529.25600000
v 1363.90800000 -71.00000000 1466.65200000
v 1434.21100000 -71.00000000 1543.02200000
v 1434.21100000 -71.00000000 1556.97800000
v 1431.91400000 -71.00000000 1570.74400000
v 1427.38300000 -71.00000000 1583.94300000
v 1420.74100000 -71.00000000 1596.21700000
v 1412.16900000 -71.00000000 1607.23000000
v 1401.90100000 -71.00000000 1616.68200000
v 1390.21800000 -71.00000000 1624.31600000
v 1377.43700000 -71.00000000 1629.92200000
v 1363.90800000 -71.00000000 1633.34800000
v 1363.90800000 -91.00000000 1466.65200000
v 1377.43700000 -91.00000000 1470.07800000
v 1390.21800000 -91.00000000 1475.68400000
v 1401.90100000 -91.00000000 1483.31800000
v 1412.16900000 -91.00000000 1492.77000000
v 1420.74100000 -91.00000000 1503.78300000
v 1427.38300000 -91.00000000 1516.05700000
v 1431.91400000 -91.00000000 1529.25600000
v 1434.21100000 -91.00000000 1543.02200000
v 1434.21100000 -91.00000000 1556.97800000
v 1431.91400000 -91.00000000 1570.74400000
v 1427.38300000 -91.00000000 1583.94300000
v 1420.74100000 -91.00000000 1596.21700000
v 1412.16900000 -91.00000000 1607.23000000
v 1401.90100000 -91.00000000 1616.68200000
v 1390.21800000 -91.00000000 1624.31600000
v 1377.43700000 -91.00000000 1629.92200000
v 1363.90800000 -91.00000000 1633.34800000
v 1396.92300000 -91.00000000 1605.92100000
v 1405.92100000 -91.00000000 1596.92300000
v 1386.50000000 -91.00000000 1613.22000000
v 1413.22000000 -91.00000000 1586.50000000
v 1374.96700000 -91.00000000 1618.59800000
v 1418.59800000 -91.00000000 1574.96700000
v 1362.67600000 -91.00000000 1621.89100000
v 1421.89100000 -91.00000000 1562.67600000
v 1423.00000000 -91.00000000 1550.00000000
v 1421.89100000 -91.00000000 1537.32400000
v 1418.59800000 -91.00000000 1525.03300000
v 1413.22000000 -91.00000000 1513.50000000
v 1405.92100000 -91.00000000 1503.07700000
v 1396.92300000 -91.00000000 1494.07900000
v 1386.50000000 -91.00000000 1486.78000000
v 1374.96700000 -91.00000000 1481.40200000
v 1362.67600000 -91.00000000 1478.10900000
v 1362.67600000 -100.20000000 1478.10900000
v 1374.96700000 -100.20000000 1481.40200000
v 1386.50000000 -100.20000000 1486.78000000
v 1396.92300000 -100.20000000 1494.07900000
v 1405.92100000 -100.20000000 1503.07700000
v 1413.22000000 -100.20000000 1513.50000000
v 1418.59800000 -100.20000000 1525.03300000
v 1421.89100000 -100.20000000 1537.32400000
v 1423.00000000 -100.20000000 1550.00000000
v 1421.89100000 -100.20000000 1562.67600000
v 1418.59800000 -100.20000000 1574.96700000
v 1413.22000000 -100.20000000 1586.50000000
v 1405.92100000 -100.20000000 1596.92300000
v 1396.92300000 -100.20000000 1605.92100000
v 1386.50000000 -100.20000000 1613.22000000
v 1374.96700000 -100.20000000 1618.59800000
v 1362.67600000 -100.20000000 1621.89100000
v 1392.10600000 -100.20000000 1596.18800000
v 1399.87600000 -100.20000000 1587.66500000
v 1382.90200000 -100.20000000 1603.13900000
v 1405.94800000 -100.20000000 1577.85900000
v 1372.57800000 -100.20000000 1608.28000000
v 1410.11400000 -100.20000000 1567.10400000
v 1361.48400000 -100.20000000 1611.43600000
v 1412.23300000 -100.20000000 1555.76700000
v 1412.23300000 -100.20000000 1544.23300000
v 1410.11400000 -100.20000000 1532.89600000
v 1405.94800000 -100.20000000 1522.14100000
v 1399.87600000 -100.20000000 1512.33500000
v 1392.10600000 -100.20000000 1503.81200000
v 1382.90200000 -100.20000000 1496.86100000
v 1372.57800000 -100.20000000 1491.72000000
v 1361.48400000 -100.20000000 1488.56400000
v 1361.48400000 -100.60000000 1488.56400000
v 1372.57800000 -100.60000000 1491.72000000
v 1382.90200000 -100.60000000 1496.86100000
v 1392.10600000 -100.60000000 1503.81200000
v 1399.87600000 -100.60000000 1512.33500000
v 1405.94800000 -100.60000000 1522.14100000
v 1410.11400000 -100.60000000 1532.89600000
v 1412.23300000 -100.60000000 1544.23300000
v 1412.23300000 -100.60000000 1555.76700000
v 1410.11400000 -100.60000000 1567.10400000
v 1405.94800000 -100.60000000 1577.85900000
v 1399.87600000 -100.60000000 1587.66500000
v 1392.10600000 -100.60000000 1596.18800000
v 1382.90200000 -100.60000000 1603.13900000
v 1372.57800000 -100.60000000 1608.28000000
v 1361.48400000 -100.60000000 1611.43600000
v 1392.42600000 -100.60000000 1592.42600000
v 1399.88800000 -100.60000000 1583.33400000
v 1383.33400000 -100.60000000 1599.88800000
v 1405.43300000 -100.60000000 1572.96100000
v 1372.96100000 -100.60000000 1605.43300000
v 1408.84700000 -100.60000000 1561.70500000
v 1361.70500000 -100.60000000 1608.84700000
v 1410.00000000 -100.60000000 1550.00000000
v 1408.84700000 -100.60000000 1538.29500000
v 1405.43300000 -100.60000000 1527.03900000
v 1399.88800000 -100.60000000 1516.66600000
v 1392.42600000 -100.60000000 1507.57400000
v 1383.33400000 -100.60000000 1500.11200000
v 1372.96100000 -100.60000000 1494.56700000
v 1361.70500000 -100.60000000 1491.15300000
v 1361.70500000 -103.80000000 1491.15300000
v 1372.96100000 -103.80000000 1494.56700000
v 1383.33400000 -103.80000000 1500.11200000
v 1392.42600000 -103.80000000 1507.57400000
v 1399.88800000 -103.80000000 1516.66600000
v 1405.43300000 -103.80000000 1527.03900000
v 1408.84700000 -103.80000000 1538.29500000
v 1410.00000000 -103.80000000 1550.00000000
v 1408.84700000 -103.80000000 1561.70500000
v 1405.43300000 -103.80000000 1572.96100000
v 1399.88800000 -103.80000000 1583.33400000
v 1392.42600000 -103.80000000 1592.42600000
v 1383.33400000 -103.80000000 1599.88800000
v 1372.96100000 -103.80000000 1605.43300000
v 1361.70500000 -103.80000000 1608.84700000
v 1388.89100000 -103.80000000 1588.89100000
v 1395.73100000 -103.80000000 1580.55600000
v 1380.55600000 -103.80000000 1595.73100000
v 1400.81300000 -103.80000000 1571.04800000
v 1371.04800000 -103.80000000 1600.81300000
v 1403.94300000 -103.80000000 1560.73000000
v 1360.73000000 -103.80000000 1603.94300000
v 1405.00000000 -103.80000000 1550.00000000
v 1403.94300000 -103.80000000 1539.27000000
v 1400.81300000 -103.80000000 1528.95200000
v 1395.73100000 -103.80000000 1519.44400000
v 1388.89100000 -103.80000000 1511.10900000
v 1380.55600000 -103.80000000 1504.26900000
v 1371.04800000 -103.80000000 1499.18700000
v 1360.73000000 -103.80000000 1496.05700000
v 1360.73000000 -108.90000000 1496.05700000
v 1371.04800000 -108.90000000 1499.18700000
v 1380.55600000 -108.90000000 1504.26900000
v 1388.89100000 -108.90000000 1511.10900000
v 1395.73100000 -108.90000000 1519.44400000
v 1400.81300000 -108.90000000 1528.95200000
v 1403.94300000 -108.90000000 1539.27000000
v 1405.00000000 -108.90000000 1550.00000000
v 1403.94300000 -108.90000000 1560.73000000
v 1400.81300000 -108.90000000 1571.04800000
v 1395.73100000 -108.90000000 1580.55600000
v 1388.89100000 -108.90000000 1588.89100000
v 1380.55600000 -108.90000000 1595.73100000
v 1371.04800000 -108.90000000 1600.81300000
v 1360.73000000 -108.90000000 1603.94300000
f 1 2 3
f 4 1 3
f 5 1 4
f 6 5 4
f 7 6 4
f 8 9 10
f 11 7 12
f 11 13 14
f 11 14 6
f 11 6 7
f 15 12 16
f 15 17 18
f 15 18 13
f 15 11 12
f 15 13 11
f 19 16 20
f 19 21 17
f 19 15 16
f 19 17 15
f 22 20 23
f 22 19 20
f 22 21 19
f 22 24 21
f 25 23 26
f 25 26 27
f 25 22 23
f 25 28 29
f 25 24 22
f 25 29 24
f 30 27 31
f 30 32 28
f 30 33 32
f 30 34 33
f 30 25 27
f 30 28 25
f 35 31 36
f 35 34 30
f 35 37 34
f 35 30 31
f 38 39 37
f 38 40 39
f 38 37 35
f 41 36 42
f 41 35 36
f 41 38 35
f 43 44 40
f 43 45 44
f 43 46 45
f 43 47 46
f 43 40 38
f 43 41 48
f 43 38 41
f 49 42 50
f 49 51 48
f 49 48 41
f 49 41 42
f 52 43 48
f 52 48 53
f 52 54 47
f 52 55 54
f 52 53 55
f 52 47 43
f 56 50 57
f 56 57 10
f 56 9 58
f 56 58 51
f 56 49 50
f 56 10 9
f 56 51 49
f 59 60 61
f 59 62 60
f 59 63 62
f 64 63 59
f 65 66 63
f 65 67 66
f 65 63 64
f 68 67 65
f 69 70 67
f 69 67 68
f 71 72 70
f 71 70 69
f 73 74 72
f 73 72 71
f 75 76 74
f 75 77 76
f 75 74 73
f 78 77 75
f 79 80 77
f 79 77 78
f 81 82 80
f 81 83 82
f 81 80 79
f 84 85 83
f 84 83 81
f 86 85 84
f 87 88 85
f 87 89 88
f 87 85 86
f 90 91 89
f 90 89 87
f 92 91 90
f 93 91 92
f 93 94 91
f 95 96 97
f 98 95 97
f 99 97 100
f 99 98 97
f 101 100 102
f 101 99 100
f 103 102 104
f 103 101 102
f 105 104 106
f 105 103 104
f 107 108 109
f 110 109 111
f 110 107 109
f 112 111 113
f 112 110 111
f 114 113 115
f 114 112 113
f 116 115 117
f 116 114 115
f 118 117 119
f 118 116 117
f 120 119 121
f 120 118 119
f 122 121 123
f 122 120 121
f 124 122 123
f 125 123 126
f 125 126 127
f 125 124 123
f 128 125 127
f 129 127 130
f 129 130 131
f 129 128 127
f 132 129 131
f 133 131 134
f 133 132 131
f 135 136 137
f 138 135 137
f 139 135 138
f 108 139 138
f 140 139 108
f 141 142 140
f 143 141 140
f 107 140 108
f 107 143 140
f 144 145 146
f 147 146 148
f 147 144 146
f 149 148 150
f 149 147 148
f 151 150 152
f 151 149 150
f 153 152 154
f 155 151 152
f 155 152 153
f 156 155 153
f 157 156 153
f 158 156 157
f 159 158 157
f 160 158 159
f 161 160 159
f 162 160 161
f 163 162 161
f 164 162 163
f 165 164 163
f 166 164 165
f 167 166 165
f 168 166 167
f 169 168 167
f 170 168 169
f 171 170 169
f 172 170 171
f 173 172 171
f 174 172 173
f 175 174 173
f 176 177 178
f 179 174 175
f 179 175 177
f 180 177 176
f 180 179 177
f 181 176 182
f 181 180 176
f 183 182 184
f 183 181 182
f 185 184 186
f 185 183 184
f 187 186 188
f 187 185 186
f 189 190 191
f 189 192 193
f 189 193 190
f 194 192 189
f 195 196 192
f 195 192 194
f 197 198 196
f 197 196 195
f 199 200 198
f 199 198 197
f 201 202 203
f 201 203 200
f 201 200 199
f 204 205 202
f 204 202 201
f 206 205 204
f 207 208 209
f 207 209 205
f 207 205 206
f 210 211 208
f 210 208 207
f 212 211 210
f 213 214 211
f 213 211 212
f 215 216 214
f 215 214 213
f 217 218 216
f 217 216 215
f 219 218 217
f 219 220 218
f 221 220 219
f 221 222 223
f 221 223 220
f 224 222 221
f 225 222 224
f 225 226 222
f 227 228 229
f 230 231 228
f 230 228 227
f 232 233 231
f 232 231 230
f 234 235 233
f 234 233 232
f 236 237 235
f 236 235 234
f 238 239 237
f 238 237 236
f 240 241 239
f 240 239 238
f 242 241 240
f 243 244 241
f 243 245 244
f 243 241 242
f 246 247 245
f 246 245 243
f 248 249 247
f 248 247 246
f 250 251 249
f 250 249 248
f 252 251 250
f 253 254 251
f 253 251 252
f 108 255 256
f 109 108 256
f 111 109 256
f 131 130 257
f 134 257 258
f 134 131 257
f 259 256 260
f 259 260 261
f 259 111 256
f 262 113 111
f 262 115 113
f 262 261 263
f 262 263 264
f 262 111 259
f 262 259 261
f 265 117 115
f 265 119 117
f 265 264 266
f 265 266 267
f 265 262 264
f 265 115 262
f 268 121 119
f 268 267 269
f 268 265 267
f 268 119 265
f 270 123 121
f 270 126 123
f 270 269 271
f 270 271 272
f 270 121 268
f 270 268 269
f 273 127 126
f 273 130 127
f 273 272 274
f 273 274 275
f 273 270 272
f 273 126 270
f 276 275 277
f 276 277 257
f 276 273 275
f 276 130 273
f 276 257 130
f 136 278 279
f 137 279 280
f 137 136 279
f 138 280 255
f 138 137 280
f 108 138 255
f 281 282 283
f 284 285 286
f 284 283 285
f 284 281 283
f 287 281 284
f 288 287 284
f 289 290 291
f 292 290 289
f 293 292 294
f 293 295 290
f 293 290 292
f 296 288 295
f 296 287 288
f 296 295 293
f 297 298 299
f 300 301 297
f 302 297 299
f 302 300 297
f 303 302 299
f 304 303 299
f 305 299 287
f 305 287 296
f 305 304 299
f 306 304 305
f 307 306 305
f 308 306 307
f 309 308 307
f 310 311 312
f 310 307 311
f 310 309 307
f 313 295 288
f 313 288 314
f 295 313 315
f 290 315 316
f 290 295 315
f 291 316 317
f 291 290 316
f 289 317 318
f 289 291 317
f 292 318 319
f 292 289 318
f 294 319 320
f 294 292 319
f 321 322 323
f 324 321 323
f 325 321 324
f 293 320 326
f 293 326 321
f 293 294 320
f 296 293 321
f 296 321 325
f 34 37 305
f 327 28 32
f 327 32 33
f 327 33 34
f 327 34 305
f 29 28 327
f 296 327 305
f 325 327 296
f 305 37 39
f 307 39 40
f 307 305 39
f 311 40 44
f 311 307 40
f 312 44 45
f 312 311 44
f 310 45 46
f 310 46 47
f 310 312 45
f 309 47 54
f 309 310 47
f 328 54 55
f 328 55 53
f 308 328 329
f 308 309 54
f 308 54 328
f 306 329 330
f 306 330 331
f 306 308 329
f 306 332 304
f 331 332 306
f 304 332 333
f 304 333 334
f 335 336 337
f 303 334 336
f 303 304 334
f 303 336 335
f 302 335 338
f 302 303 335
f 300 338 339
f 300 302 338
f 301 339 340
f 301 340 341
f 301 300 339
f 297 341 342
f 297 342 343
f 297 301 341
f 298 343 344
f 298 297 343
f 299 344 345
f 299 345 346
f 299 298 344
f 347 348 287
f 347 287 299
f 349 350 347
f 351 349 347
f 352 347 299
f 352 351 347
f 346 352 299
f 353 348 354
f 353 354 355
f 353 355 356
f 287 348 353
f 281 353 357
f 281 357 358
f 281 287 353
f 282 358 359
f 282 281 358
f 283 359 360
f 283 282 359
f 285 360 361
f 285 283 360
f 286 361 362
f 286 285 361
f 284 362 363
f 284 286 362
f 288 363 314
f 288 284 363
f 364 318 317
f 364 319 318
f 316 364 317
f 315 364 316
f 313 364 315
f 365 360 359
f 365 361 360
f 365 362 361
f 365 363 362
f 365 314 363
f 365 364 313
f 365 313 314
f 366 367 368
f 369 368 370
f 369 366 368
f 371 369 370
f 372 373 374
f 325 374 371
f 325 370 375
f 325 371 370
f 325 372 374
f 324 372 325
f 323 372 324
f 322 372 323
f 325 376 327
f 325 377 376
f 325 375 377
f 378 322 321
f 379 322 378
f 380 372 322
f 380 322 379
f 381 372 380
f 382 381 380
f 383 382 380
f 384 382 383
f 326 378 321
f 385 386 380
f 385 379 378
f 385 380 379
f 320 378 326
f 387 320 319
f 387 385 378
f 387 378 320
f 364 387 319
f 388 8 10
f 389 390 391
f 392 390 389
f 393 392 389
f 3 393 389
f 2 393 3
f 394 10 395
f 394 395 396
f 394 397 398
f 394 398 388
f 394 388 10
f 399 396 400
f 399 401 397
f 399 394 396
f 399 397 394
f 402 335 337
f 402 337 401
f 403 400 404
f 403 401 399
f 403 399 400
f 405 401 403
f 405 402 401
f 405 335 402
f 405 338 335
f 405 339 338
f 405 340 339
f 405 341 340
f 405 342 341
f 406 404 407
f 406 403 404
f 408 405 403
f 408 343 342
f 408 344 343
f 408 345 344
f 408 346 345
f 408 406 346
f 408 342 405
f 408 403 406
f 409 407 410
f 409 352 346
f 409 351 352
f 409 406 407
f 409 346 406
f 411 410 412
f 411 412 413
f 411 414 350
f 411 349 351
f 411 350 349
f 411 351 409
f 411 409 410
f 415 411 413
f 415 414 411
f 415 413 416
f 415 417 414
f 418 416 419
f 418 415 416
f 418 420 417
f 418 417 415
f 421 419 422
f 421 423 424
f 421 424 420
f 421 420 418
f 421 418 419
f 425 422 391
f 425 390 426
f 425 426 423
f 425 391 390
f 425 423 421
f 425 421 422
f 24 29 327
f 24 327 376
f 21 376 377
f 21 24 376
f 17 377 375
f 17 21 377
f 18 375 370
f 18 17 375
f 13 370 368
f 13 18 370
f 14 368 367
f 14 13 368
f 334 427 336
f 333 427 334
f 332 427 333
f 331 427 332
f 428 427 331
f 330 428 331
f 329 428 330
f 328 428 329
f 53 428 328
f 429 428 53
f 48 429 53
f 430 429 48
f 427 337 336
f 431 432 401
f 431 401 337
f 431 337 427
f 433 434 435
f 436 437 434
f 436 434 433
f 438 437 436
f 348 439 437
f 348 440 439
f 348 441 440
f 348 347 441
f 348 437 438
f 442 348 438
f 443 354 348
f 443 355 354
f 443 356 355
f 443 348 442
f 444 443 442
f 423 435 434
f 423 426 435
f 424 434 437
f 424 423 434
f 420 437 439
f 420 424 437
f 417 439 440
f 417 420 439
f 414 440 441
f 414 417 440
f 350 441 347
f 350 414 441
f 445 357 353
f 445 358 357
f 446 365 359
f 446 359 358
f 446 358 445
f 447 445 448
f 447 446 445
f 449 447 448
f 450 447 449
f 445 353 356
f 448 445 356
f 449 356 443
f 449 448 356
f 451 449 443
f 452 449 451
f 453 449 452
f 454 453 452
f 455 454 452
f 86 446 447
f 84 365 446
f 84 446 86
f 87 447 450
f 87 86 447
f 81 365 84
f 90 87 450
f 79 365 81
f 92 90 450
f 78 365 79
f 93 92 450
f 75 365 78
f 456 457 93
f 456 458 457
f 456 93 450
f 364 73 71
f 364 75 73
f 364 365 75
f 459 458 456
f 460 459 456
f 69 387 364
f 69 364 71
f 461 459 460
f 462 461 460
f 68 385 387
f 68 387 69
f 463 461 462
f 464 463 462
f 386 385 68
f 65 386 68
f 465 463 464
f 64 386 65
f 466 465 464
f 59 386 64
f 467 466 464
f 61 386 59
f 468 386 61
f 468 469 470
f 468 471 469
f 468 472 471
f 468 61 472
f 473 474 475
f 473 476 474
f 473 477 476
f 478 468 470
f 479 478 470
f 479 470 477
f 479 477 473
f 473 475 464
f 475 467 464
f 373 480 481
f 374 481 482
f 374 373 481
f 371 482 483
f 371 374 482
f 369 483 484
f 369 371 483
f 366 484 485
f 366 369 484
f 14 485 6
f 14 366 485
f 367 366 14
f 480 373 372
f 486 480 372
f 487 488 480
f 487 480 486
f 489 490 491
f 492 489 491
f 133 492 491
f 132 133 491
f 493 443 444
f 96 493 494
f 95 443 493
f 95 493 96
f 381 129 132
f 381 128 129
f 381 125 128
f 381 132 491
f 124 125 381
f 122 124 381
f 495 143 107
f 495 141 143
f 495 142 141
f 120 122 381
f 110 495 107
f 451 120 381
f 451 495 110
f 451 118 120
f 451 116 118
f 451 114 116
f 451 112 114
f 451 110 112
f 443 495 451
f 443 95 495
f 381 491 372
f 491 486 372
f 200 496 497
f 198 497 498
f 198 200 497
f 196 498 499
f 196 198 498
f 203 500 496
f 203 496 200
f 192 499 501
f 192 196 499
f 202 502 500
f 202 500 203
f 193 501 503
f 193 192 501
f 205 504 502
f 205 502 202
f 190 503 188
f 190 188 186
f 190 193 503
f 209 505 504
f 209 506 505
f 209 504 205
f 507 190 186
f 507 186 184
f 208 506 209
f 508 506 208
f 509 507 184
f 509 184 182
f 211 508 208
f 510 508 211
f 511 182 176
f 511 509 182
f 214 510 211
f 512 510 214
f 513 176 178
f 513 511 176
f 216 512 214
f 514 512 216
f 515 513 178
f 218 514 216
f 516 514 218
f 220 516 218
f 517 516 220
f 223 517 220
f 451 178 452
f 451 518 515
f 451 519 518
f 451 515 178
f 520 517 223
f 521 519 451
f 222 520 223
f 522 521 451
f 523 222 226
f 523 520 222
f 145 523 226
f 146 226 524
f 146 145 226
f 148 524 525
f 148 146 524
f 150 525 526
f 150 148 525
f 381 527 522
f 381 528 527
f 381 529 528
f 381 530 529
f 381 522 451
f 152 526 531
f 152 150 526
f 154 152 531
f 154 530 381
f 154 531 530
f 382 154 381
f 382 153 154
f 384 153 382
f 473 532 533
f 479 473 533
f 384 533 157
f 384 157 153
f 384 479 533
f 478 479 384
f 468 384 383
f 468 478 384
f 386 383 380
f 386 468 383
f 494 493 534
f 535 534 536
f 535 494 534
f 537 536 538
f 537 535 536
f 539 537 538
f 540 539 538
f 541 539 540
f 542 541 540
f 543 541 542
f 390 543 542
f 392 544 543
f 392 543 390
f 393 545 544
f 393 544 392
f 2 546 545
f 2 545 393
f 481 480 488
f 481 488 547
f 1 548 546
f 1 546 2
f 482 547 549
f 482 481 547
f 5 550 548
f 5 548 1
f 483 549 551
f 483 482 549
f 6 550 5
f 484 551 552
f 484 483 551
f 485 484 552
f 485 552 550
f 485 550 6
f 51 430 48
f 431 398 397
f 431 397 432
f 388 398 431
f 8 388 431
f 429 430 51
f 429 9 8
f 429 58 9
f 429 51 58
f 429 8 431
f 247 422 419
f 245 419 416
f 245 247 419
f 249 391 422
f 249 422 247
f 244 416 413
f 244 245 416
f 251 389 391
f 251 391 249
f 241 413 412
f 241 244 413
f 254 4 3
f 254 3 389
f 254 389 251
f 239 412 410
f 239 241 412
f 553 4 254
f 7 4 553
f 237 410 407
f 237 239 410
f 554 7 553
f 235 237 407
f 12 7 554
f 404 235 407
f 555 12 554
f 233 235 404
f 400 233 404
f 16 12 555
f 556 16 555
f 231 233 400
f 396 231 400
f 20 16 556
f 20 556 557
f 228 231 396
f 395 228 396
f 395 229 228
f 23 20 557
f 23 557 558
f 26 558 559
f 26 23 558
f 10 229 395
f 27 559 560
f 27 26 559
f 57 561 229
f 57 229 10
f 31 560 562
f 31 27 560
f 50 563 561
f 50 561 57
f 42 564 563
f 42 563 50
f 36 562 564
f 36 564 42
f 36 31 562
f 431 428 429
f 431 427 428
f 432 397 401
f 426 390 542
f 433 435 426
f 433 542 540
f 433 426 542
f 436 540 538
f 436 433 540
f 438 538 536
f 438 436 538
f 442 536 534
f 442 438 536
f 444 534 493
f 444 442 534
f 456 450 449
f 453 456 449
f 454 456 453
f 175 455 177
f 460 454 455
f 460 456 454
f 565 455 175
f 462 460 455
f 462 455 565
f 464 565 566
f 464 462 565
f 178 455 452
f 177 455 178
f 473 566 532
f 473 464 566
f 457 94 93
f 457 567 94
f 458 568 567
f 458 567 457
f 459 569 568
f 459 568 458
f 461 570 569
f 461 569 459
f 463 571 570
f 463 570 461
f 465 572 571
f 465 571 463
f 466 573 572
f 466 574 573
f 466 572 465
f 467 574 466
f 475 575 574
f 475 576 575
f 475 574 467
f 474 576 475
f 476 577 576
f 476 578 577
f 476 576 474
f 477 578 476
f 470 579 578
f 470 580 579
f 470 578 477
f 469 580 470
f 471 581 580
f 471 580 469
f 472 581 471
f 472 582 581
f 472 60 582
f 61 60 472
f 105 106 583
f 136 584 278
f 585 583 584
f 585 105 583
f 585 584 136
f 586 136 135
f 586 585 136
f 587 135 139
f 587 586 135
f 588 139 140
f 588 587 139
f 495 140 142
f 495 588 140
f 99 95 98
f 101 95 99
f 586 105 585
f 586 103 105
f 586 101 103
f 586 95 101
f 587 588 495
f 587 495 95
f 587 95 586
f 589 590 591
f 592 589 591
f 593 134 590
f 593 590 589
f 594 133 134
f 594 492 133
f 594 134 593
f 489 492 594
f 490 489 594
f 491 490 594
f 595 594 593
f 595 491 594
f 596 592 597
f 598 593 589
f 598 595 593
f 599 589 592
f 599 598 589
f 600 596 601
f 600 592 596
f 600 599 592
f 602 601 603
f 602 600 601
f 604 603 605
f 604 602 603
f 606 605 607
f 606 604 605
f 608 607 609
f 608 606 607
f 610 609 611
f 610 608 609
f 486 611 487
f 486 610 611
f 486 608 610
f 602 606 608
f 602 604 606
f 602 608 486
f 599 600 602
f 595 598 599
f 595 602 486
f 595 599 602
f 491 595 486
f 487 547 488
f 611 547 487
f 609 547 611
f 607 547 609
f 547 605 603
f 547 607 605
f 97 535 100
f 102 100 535
f 96 494 535
f 96 535 97
f 106 104 535
f 104 102 535
f 612 187 188
f 612 188 503
f 613 503 501
f 613 612 503
f 614 501 499
f 614 499 498
f 614 613 501
f 615 614 498
f 616 498 497
f 616 615 498
f 617 497 496
f 617 496 500
f 617 616 497
f 618 617 500
f 619 500 502
f 619 618 500
f 620 502 504
f 620 619 502
f 621 504 505
f 621 620 504
f 622 505 506
f 622 621 505
f 623 506 508
f 623 508 510
f 623 622 506
f 624 623 510
f 625 624 510
f 625 510 512
f 626 625 512
f 626 512 514
f 627 626 514
f 627 514 516
f 628 627 516
f 628 516 517
f 628 517 520
f 629 628 520
f 630 520 523
f 630 629 520
f 144 523 145
f 144 630 523
f 631 226 225
f 631 524 226
f 632 525 524
f 632 524 631
f 633 526 525
f 633 525 632
f 634 531 526
f 634 526 633
f 635 529 530
f 635 530 531
f 635 531 634
f 636 529 635
f 637 528 529
f 637 529 636
f 638 527 528
f 638 528 637
f 639 522 527
f 639 527 638
f 640 521 522
f 640 522 639
f 641 519 521
f 641 521 640
f 642 518 519
f 642 519 641
f 643 515 518
f 643 518 642
f 644 513 515
f 644 515 643
f 645 513 644
f 645 509 511
f 645 511 513
f 646 509 645
f 646 507 509
f 647 507 646
f 191 507 647
f 191 190 507
f 565 175 173
f 171 565 173
f 169 565 171
f 167 565 169
f 533 159 157
f 533 161 159
f 533 163 161
f 533 165 163
f 533 565 167
f 533 167 165
f 532 565 533
f 532 566 565
f 603 648 649
f 650 649 258
f 650 258 257
f 650 603 649
f 549 547 603
f 549 603 650
f 551 650 651
f 551 549 650
f 552 651 652
f 552 551 651
f 550 652 653
f 550 552 652
f 548 653 654
f 548 550 653
f 546 654 655
f 546 548 654
f 545 655 656
f 545 656 657
f 545 546 655
f 544 657 658
f 544 545 657
f 543 658 659
f 543 544 658
f 541 659 660
f 541 543 659
f 255 661 256
f 539 660 661
f 539 541 660
f 280 661 255
f 106 661 280
f 106 280 279
f 537 661 106
f 537 539 661
f 535 537 106
f 253 553 254
f 662 554 553
f 662 553 253
f 663 555 554
f 663 554 662
f 664 556 555
f 664 555 663
f 665 557 556
f 665 556 664
f 666 558 557
f 666 557 665
f 667 559 558
f 667 558 666
f 668 559 667
f 669 560 559
f 669 559 668
f 670 562 560
f 670 564 562
f 670 560 669
f 671 563 564
f 671 564 670
f 672 561 563
f 672 563 671
f 673 561 672
f 227 229 561
f 227 561 673
f 74 67 70
f 74 70 72
f 62 63 66
f 62 66 67
f 582 60 62
f 582 74 76
f 582 67 74
f 582 62 67
f 83 77 80
f 83 80 82
f 579 580 581
f 579 581 582
f 579 582 76
f 88 76 77
f 88 83 85
f 88 77 83
f 576 577 578
f 576 578 579
f 574 575 576
f 574 579 76
f 574 576 579
f 567 88 89
f 567 89 91
f 567 91 94
f 567 76 88
f 567 574 76
f 572 573 574
f 571 572 574
f 570 571 574
f 570 567 568
f 570 568 569
f 570 574 567
f 590 134 258
f 590 258 649
f 591 649 648
f 591 590 649
f 592 591 648
f 597 592 648
f 279 278 584
f 279 583 106
f 279 584 583
f 648 596 597
f 603 601 648
f 601 596 648
f 215 625 626
f 217 626 627
f 217 215 626
f 219 217 627
f 219 627 628
f 213 624 625
f 213 625 215
f 221 219 628
f 221 628 629
f 212 623 624
f 212 624 213
f 210 623 212
f 210 622 623
f 224 221 629
f 224 629 630
f 207 621 622
f 207 620 621
f 207 622 210
f 225 144 147
f 225 630 144
f 225 224 630
f 206 620 207
f 631 225 147
f 619 620 206
f 149 631 147
f 204 619 206
f 632 631 149
f 618 619 204
f 151 632 149
f 201 618 204
f 633 632 151
f 617 618 201
f 155 633 151
f 199 617 201
f 634 633 155
f 616 617 199
f 156 634 155
f 197 616 199
f 635 634 156
f 615 616 197
f 158 635 156
f 195 615 197
f 636 635 158
f 614 615 195
f 160 636 158
f 194 614 195
f 637 636 160
f 613 614 194
f 162 637 160
f 189 613 194
f 638 637 162
f 612 613 189
f 612 189 191
f 164 639 638
f 164 638 162
f 166 639 164
f 187 612 191
f 185 191 647
f 185 187 191
f 168 640 639
f 168 639 166
f 170 640 168
f 170 641 640
f 183 185 647
f 183 647 646
f 181 646 645
f 181 183 646
f 172 641 170
f 172 642 641
f 180 181 645
f 180 645 644
f 174 642 172
f 174 643 642
f 179 180 644
f 179 643 174
f 179 644 643
f 260 661 660
f 260 256 661
f 659 260 660
f 658 260 659
f 657 260 658
f 656 260 657
f 655 277 260
f 655 260 656
f 650 257 277
f 654 277 655
f 651 650 277
f 653 277 654
f 652 651 277
f 652 277 653
f 240 238 236
f 240 236 234
f 240 234 232
f 672 227 673
f 671 227 672
f 669 671 670
f 252 250 248
f 252 248 246
f 252 246 243
f 252 243 242
f 253 242 240
f 253 232 230
f 253 240 232
f 253 252 242
f 667 669 668
f 666 669 667
f 663 662 253
f 664 666 665
f 664 230 227
f 664 253 230
f 664 227 671
f 664 671 669
f 664 663 253
f 664 669 666
f 269 267 266
f 277 261 260
f 275 261 277
f 272 264 263
f 272 266 264
f 272 271 269
f 272 269 266
f 274 263 261
f 274 261 275
f 274 272 263
f 674 675 676
f 677 678 679
f 680 676 678
f 680 674 676
f 681 678 677
f 681 680 678
f 682 680 681
f 683 684 685
f 683 686 684
f 683 682 686
f 687 683 688
f 687 682 683
f 689 680 682
f 689 682 687
f 690 680 689
f 691 692 690
f 693 691 690
f 694 693 690
f 695 696 694
f 697 695 694
f 697 694 690
f 698 697 690
f 699 690 689
f 699 698 690
f 700 698 699
f 701 699 702
f 701 700 699
f 703 704 700
f 705 700 701
f 705 703 700
f 699 706 707
f 699 689 706
f 702 699 707
f 702 707 708
f 701 708 709
f 701 709 710
f 701 702 708
f 705 701 710
f 703 710 711
f 703 711 712
f 703 705 710
f 704 703 712
f 700 712 713
f 700 713 714
f 700 704 712
f 698 700 714
f 698 715 697
f 714 715 698
f 695 697 715
f 695 715 716
f 696 716 717
f 696 717 718
f 696 695 716
f 694 696 718
f 693 718 719
f 693 719 720
f 693 694 718
f 691 693 720
f 692 720 721
f 692 721 722
f 692 691 720
f 690 692 722
f 722 723 680
f 722 680 690
f 674 680 723
f 674 723 724
f 675 724 725
f 675 725 726
f 675 674 724
f 676 675 726
f 678 726 727
f 678 727 728
f 678 676 726
f 679 678 728
f 677 728 729
f 677 729 730
f 677 679 728
f 681 677 730
f 682 730 731
f 682 681 730
f 686 682 731
f 686 731 732
f 684 732 733
f 684 733 734
f 684 686 732
f 685 684 734
f 683 734 735
f 683 735 736
f 683 685 734
f 688 683 736
f 687 736 737
f 687 737 706
f 687 688 736
f 689 687 706
f 724 726 725
f 730 727 726
f 730 728 727
f 730 729 728
f 730 726 724
f 723 730 724
f 731 730 723
f 736 735 734
f 737 732 731
f 737 733 732
f 737 734 733
f 737 736 734
f 706 731 723
f 706 737 731
f 719 721 720
f 718 721 719
f 716 718 717
f 716 722 721
f 716 721 718
f 715 722 716
f 707 723 722
f 707 706 723
f 707 722 715
f 714 707 715
f 710 708 707
f 710 709 708
f 711 713 712
f 711 714 713
f 711 707 714
f 711 710 707
f 738 739 740
f 738 741 739
f 742 743 741
f 742 741 738
f 744 745 743
f 744 743 742
f 746 747 745
f 746 745 744
f 748 749 747
f 748 747 746
f 750 751 749
f 750 749 748
f 752 753 751
f 752 751 750
f 754 755 753
f 754 753 752
f 756 757 755
f 756 755 754
f 758 759 760
f 758 760 757
f 758 757 756
f 761 759 758
f 762 763 759
f 762 759 761
f 764 765 763
f 764 763 762
f 766 767 768
f 766 769 767
f 770 768 771
f 770 766 768
f 772 771 773
f 772 770 771
f 774 773 775
f 774 772 773
f 776 775 777
f 776 774 775
f 778 777 779
f 778 776 777
f 780 779 781
f 780 778 779
f 782 781 783
f 782 780 781
f 784 783 785
f 784 785 786
f 784 782 783
f 787 784 786
f 788 786 789
f 788 787 786
f 790 789 791
f 790 791 792
f 790 788 789
f 793 792 794
f 793 790 792
f 795 793 794
f 796 794 797
f 796 797 798
f 796 795 794
f 799 796 798
f 800 799 798
f 800 798 801
f 802 803 804
f 805 804 806
f 805 802 804
f 807 806 808
f 807 805 806
f 809 808 810
f 809 807 808
f 811 810 812
f 811 809 810
f 813 812 814
f 813 811 812
f 815 814 816
f 815 813 814
f 817 816 818
f 817 815 816
f 819 818 820
f 819 817 818
f 821 819 820
f 822 820 823
f 822 823 824
f 822 821 820
f 825 824 826
f 825 822 824
f 827 826 828
f 827 825 826
f 829 827 828
f 830 828 831
f 830 831 832
f 830 829 828
f 833 830 832
f 834 833 832
f 834 832 835
f 834 835 836
f 837 834 836
f 838 837 836
f 838 836 839
f 191 840 841
f 189 841 842
f 189 191 841
f 194 842 843
f 194 189 842
f 195 843 844
f 195 194 843
f 197 844 845
f 197 195 844
f 199 845 846
f 199 197 845
f 201 846 847
f 201 199 846
f 204 847 848
f 204 201 847
f 206 848 849
f 206 204 848
f 207 849 850
f 207 206 849
f 210 850 851
f 210 207 850
f 212 851 852
f 212 210 851
f 213 852 853
f 213 212 852
f 215 853 854
f 215 213 853
f 217 215 854
f 219 217 854
f 219 854 855
f 221 219 855
f 221 855 856
f 221 856 857
f 224 221 857
f 225 224 857
f 225 857 858
f 859 860 861
f 862 861 863
f 862 859 861
f 864 863 865
f 864 862 863
f 866 865 867
f 866 864 865
f 868 867 869
f 868 866 867
f 870 869 871
f 870 868 869
f 872 871 873
f 872 870 871
f 874 873 875
f 874 872 873
f 876 875 877
f 876 874 875
f 878 876 877
f 879 877 880
f 879 878 877
f 881 880 882
f 881 882 883
f 881 879 880
f 884 881 883
f 885 883 886
f 885 884 883
f 887 886 888
f 887 888 889
f 887 885 886
f 890 887 889
f 891 890 889
f 891 889 892
f 893 891 892
f 893 892 894
f 895 893 894
f 895 894 896
f 895 896 897
f 898 895 897
f 899 900 901
f 902 901 903
f 902 899 901
f 904 903 905
f 904 902 903
f 906 905 907
f 906 904 905
f 908 907 909
f 908 906 907
f 910 909 911
f 910 908 909
f 912 911 913
f 912 910 911
f 914 913 915
f 914 912 913
f 916 915 917
f 916 914 915
f 918 917 919
f 918 916 917
f 920 918 919
f 921 919 922
f 921 920 919
f 923 922 924
f 923 924 925
f 923 921 922
f 926 925 927
f 926 923 925
f 928 927 929
f 928 926 927
f 930 928 929
f 930 929 931
f 932 930 931
f 933 932 931
f 933 931 934
f 933 934 935
f 936 933 935
f 937 938 939
f 937 940 938
f 941 939 942
f 941 937 939
f 943 942 944
f 943 941 942
f 945 944 946
f 945 943 944
f 947 946 948
f 947 945 946
f 949 948 950
f 949 947 948
f 951 950 952
f 951 949 950
f 953 952 954
f 953 951 952
f 955 954 956
f 955 953 954
f 957 956 958
f 957 955 956
f 959 958 960
f 959 960 961
f 959 957 958
f 962 959 961
f 963 961 964
f 963 962 961
f 965 964 966
f 965 966 967
f 965 963 964
f 968 965 967
f 969 968 967
f 969 967 970
f 969 970 971
f 972 969 971
f 973 974 975
f 973 976 974
f 977 975 978
f 977 973 975
f 979 978 980
f 979 977 978
f 981 980 982
f 981 979 980
f 983 982 984
f 983 981 982
f 985 984 986
f 985 983 984
f 987 986 988
f 987 985 986
f 989 988 990
f 989 987 988
f 991 990 992
f 991 989 990
f 993 992 994
f 993 991 992
f 995 994 996
f 995 993 994
f 997 996 998
f 997 998 999
f 997 995 996
f 1000 997 999
f 1001 999 1002
f 1001 1000 999
f 1003 1002 1004
f 1003 1004 1005
f 1003 1001 1002
f 1006 1003 1005
f 1007 1008 1009
f 1007 1010 1008
f 1011 1009 1012
f 1011 1007 1009
f 1013 1012 1014
f 1013 1011 1012
f 1015 1014 1016
f 1015 1013 1014
f 1017 1016 1018
f 1017 1015 1016
f 1019 1018 1020
f 1019 1017 1018
f 1021 1020 1022
f 1021 1019 1020
f 1023 1022 1024
f 1023 1021 1022
f 1025 1024 1026
f 1025 1023 1024
f 1027 1026 1028
f 1027 1025 1026
f 1029 1028 1030
f 1029 1027 1028
f 1031 1030 1032
f 1031 1029 1030
f 1033 1032 1034
f 1033 1031 1032
f 1035 1034 1036
f 1035 1033 1034
f 1037 1036 1038
f 1037 1038 1039
f 1037 1035 1036
f 1040 1037 1039
f 745 1041 1042
f 745 1043 1041
f 747 1044 1043
f 747 1043 745
f 743 1042 1045
f 743 745 1042
f 749 1046 1044
f 749 1044 747
f 741 1045 1047
f 741 743 1045
f 751 1048 1046
f 751 1046 749
f 739 1047 801
f 739 801 798
f 739 741 1047
f 753 1049 1048
f 753 1050 1049
f 753 1048 751
f 1051 798 797
f 1051 739 798
f 755 1050 753
f 755 1052 1050
f 1053 1051 797
f 1053 797 794
f 757 1052 755
f 757 1054 1052
f 1055 1053 794
f 1055 794 792
f 760 1054 757
f 1056 1054 760
f 791 1055 792
f 791 1057 1055
f 1058 1056 760
f 1058 760 759
f 789 1057 791
f 789 1059 1057
f 1060 1058 759
f 1060 759 763
f 786 1061 1059
f 786 1059 789
f 1062 763 765
f 1062 1060 763
f 785 1063 1061
f 785 1061 786
f 767 1062 765
f 783 1063 785
f 768 765 1064
f 768 767 765
f 781 1065 1063
f 781 1063 783
f 771 1064 1066
f 771 768 1064
f 779 1067 1065
f 779 1065 781
f 773 1066 1068
f 773 771 1066
f 777 1068 1067
f 777 1067 779
f 775 1068 777
f 775 773 1068
f 1069 765 764
f 1069 1064 765
f 1070 1066 1064
f 1070 1064 1069
f 1071 1067 1068
f 1071 1068 1066
f 1071 1066 1070
f 1072 1065 1067
f 1072 1067 1071
f 1073 1063 1065
f 1073 1065 1072
f 1074 1063 1073
f 1075 1061 1063
f 1075 1063 1074
f 1076 1059 1061
f 1076 1061 1075
f 1077 1055 1057
f 1077 1057 1059
f 1077 1059 1076
f 1078 1055 1077
f 1079 1053 1055
f 1079 1055 1078
f 1080 1051 1053
f 1080 1053 1079
f 740 739 1051
f 740 1051 1080
f 800 801 1047
f 1081 1047 1045
f 1081 800 1047
f 1082 1045 1042
f 1082 1081 1045
f 1083 1042 1041
f 1083 1082 1042
f 1084 1041 1043
f 1084 1083 1041
f 1085 1043 1044
f 1085 1084 1043
f 1086 1085 1044
f 1087 1044 1046
f 1087 1086 1044
f 1088 1046 1048
f 1088 1087 1046
f 1089 1048 1049
f 1089 1088 1048
f 1090 1049 1050
f 1090 1089 1049
f 1091 1050 1052
f 1091 1090 1050
f 1092 1052 1054
f 1092 1091 1052
f 1093 1054 1056
f 1093 1092 1054
f 1094 1056 1058
f 1094 1093 1056
f 1095 1058 1060
f 1095 1094 1058
f 1096 1095 1060
f 1096 1060 1062
f 769 1096 1062
f 769 1062 767
f 748 746 744
f 738 744 742
f 738 748 744
f 754 752 750
f 754 750 748
f 1079 740 1080
f 1079 738 740
f 1078 748 738
f 1078 738 1079
f 1078 754 748
f 758 756 754
f 1077 754 1078
f 1075 1077 1076
f 1075 762 761
f 1075 761 758
f 1075 758 754
f 1075 754 1077
f 1069 764 762
f 1073 1075 1074
f 1073 762 1075
f 1071 1073 1072
f 1071 1070 1069
f 1071 1069 762
f 1071 762 1073
f 1084 1097 1098
f 1085 1099 1097
f 1085 1097 1084
f 1083 1098 1100
f 1083 1084 1098
f 1086 1101 1099
f 1086 1099 1085
f 1082 1100 1102
f 1082 1083 1100
f 1087 1103 1101
f 1087 1101 1086
f 1081 1102 1104
f 1081 1082 1102
f 1088 1103 1087
f 1088 1105 1103
f 800 1104 839
f 800 1081 1104
f 836 800 839
f 1089 1106 1105
f 1089 1105 1088
f 799 800 836
f 1090 1106 1089
f 1107 1106 1090
f 835 799 836
f 796 799 835
f 1091 1107 1090
f 1108 1107 1091
f 832 796 835
f 795 796 832
f 1092 1108 1091
f 1109 1108 1092
f 831 795 832
f 793 795 831
f 1093 1109 1092
f 1110 1109 1093
f 828 793 831
f 790 793 828
f 1094 1110 1093
f 1111 1110 1094
f 826 790 828
f 788 790 826
f 1095 1111 1094
f 1112 1111 1095
f 824 788 826
f 787 788 824
f 1096 1112 1095
f 1113 1112 1096
f 823 784 787
f 823 787 824
f 769 1113 1096
f 820 782 784
f 820 784 823
f 803 1113 769
f 818 780 782
f 818 782 820
f 804 769 766
f 804 803 769
f 816 778 780
f 816 780 818
f 806 766 770
f 806 804 766
f 814 778 816
f 814 776 778
f 808 770 772
f 808 806 770
f 810 808 772
f 810 772 774
f 812 810 774
f 812 774 776
f 812 776 814
f 838 839 1104
f 1114 1104 1102
f 1114 838 1104
f 1115 1102 1100
f 1115 1114 1102
f 1116 1100 1098
f 1116 1115 1100
f 1117 1098 1097
f 1117 1116 1098
f 1118 1097 1099
f 1118 1117 1097
f 1119 1099 1101
f 1119 1118 1099
f 1120 1101 1103
f 1120 1119 1101
f 1121 1103 1105
f 1121 1120 1103
f 1122 1105 1106
f 1122 1121 1105
f 1123 1122 1106
f 1124 1106 1107
f 1124 1123 1106
f 1125 1107 1108
f 1125 1108 1109
f 1125 1124 1107
f 1126 1125 1109
f 1127 1109 1110
f 1127 1110 1111
f 1127 1126 1109
f 1128 1127 1111
f 1129 1128 1111
f 1129 1111 1112
f 1129 1112 1113
f 1130 1129 1113
f 1130 1113 803
f 802 1130 803
f 1117 1131 1132
f 1117 1118 1131
f 1116 1132 1133
f 1116 1117 1132
f 1119 1134 1131
f 1119 1131 1118
f 1135 1134 1119
f 1115 1133 1136
f 1115 1116 1133
f 1120 1135 1119
f 1114 1136 1137
f 1114 1115 1136
f 1121 1135 1120
f 1121 1138 1135
f 838 1137 858
f 838 1114 1137
f 1122 1139 1138
f 1122 1138 1121
f 837 858 857
f 837 838 858
f 1123 1139 1122
f 1123 1140 1139
f 834 837 857
f 834 857 856
f 1124 1141 1140
f 1124 1140 1123
f 833 834 856
f 833 856 855
f 1125 1141 1124
f 1125 1142 1141
f 1143 1142 1125
f 830 833 855
f 830 855 854
f 1126 1143 1125
f 1144 1143 1126
f 1144 1126 1127
f 853 830 854
f 853 829 830
f 1145 1144 1127
f 1145 1127 1128
f 852 827 829
f 852 829 853
f 1146 1128 1129
f 1146 1145 1128
f 851 825 827
f 851 827 852
f 822 825 851
f 1147 1129 1130
f 1147 1146 1129
f 850 822 851
f 840 1130 802
f 840 1147 1130
f 849 821 822
f 849 822 850
f 841 802 805
f 841 840 802
f 848 819 821
f 848 821 849
f 847 817 819
f 847 819 848
f 842 805 807
f 842 841 805
f 815 817 847
f 846 815 847
f 843 807 809
f 843 842 807
f 844 843 809
f 844 809 811
f 845 815 846
f 845 844 811
f 845 813 815
f 845 811 813
f 225 858 1137
f 631 1137 1136
f 631 225 1137
f 632 1136 1133
f 632 631 1136
f 633 1133 1132
f 633 632 1133
f 634 1132 1131
f 634 633 1132
f 635 1131 1134
f 635 634 1131
f 636 1134 1135
f 636 635 1134
f 637 1135 1138
f 637 636 1135
f 638 1138 1139
f 638 637 1138
f 639 1139 1140
f 639 638 1139
f 640 1140 1141
f 640 639 1140
f 641 640 1141
f 642 1141 1142
f 642 1142 1143
f 642 641 1141
f 643 642 1143
f 644 1143 1144
f 644 1144 1145
f 644 643 1143
f 645 1145 1146
f 645 644 1145
f 646 645 1146
f 647 646 1146
f 647 1146 1147
f 647 1147 840
f 191 647 840
f 635 1148 1149
f 634 1149 1150
f 634 635 1149
f 633 1150 1151
f 633 634 1150
f 636 1152 1148
f 636 1148 635
f 632 1151 1153
f 632 633 1151
f 637 1154 1152
f 637 1152 636
f 631 1153 1155
f 631 632 1153
f 638 1156 1154
f 638 1154 637
f 225 1155 897
f 225 631 1155
f 639 1157 1156
f 639 1156 638
f 896 225 897
f 224 225 896
f 640 1158 1157
f 640 1157 639
f 894 224 896
f 221 224 894
f 641 1158 640
f 1159 1158 641
f 892 221 894
f 219 221 892
f 642 1159 641
f 1160 1159 642
f 889 219 892
f 217 219 889
f 643 1160 642
f 1161 1160 643
f 888 217 889
f 215 217 888
f 644 1161 643
f 1162 1161 644
f 886 215 888
f 213 215 886
f 645 1162 644
f 1163 1162 645
f 883 213 886
f 212 213 883
f 646 1163 645
f 1164 1163 646
f 647 1164 646
f 882 210 212
f 882 212 883
f 1165 1164 647
f 191 1165 647
f 880 207 210
f 880 210 882
f 860 1165 191
f 877 206 207
f 877 207 880
f 861 191 189
f 861 860 191
f 875 204 206
f 875 206 877
f 863 189 194
f 863 861 189
f 873 204 875
f 873 201 204
f 865 863 194
f 865 194 195
f 871 201 873
f 871 199 201
f 867 865 195
f 867 195 197
f 869 199 871
f 869 867 197
f 869 197 199
f 1166 898 897
f 1166 897 1155
f 1167 1155 1153
f 1167 1153 1151
f 1167 1166 1155
f 1168 1167 1151
f 1169 1151 1150
f 1169 1150 1149
f 1169 1168 1151
f 1170 1169 1149
f 1171 1149 1148
f 1171 1170 1149
f 1172 1148 1152
f 1172 1152 1154
f 1172 1171 1148
f 1173 1154 1156
f 1173 1172 1154
f 1174 1156 1157
f 1174 1173 1156
f 1175 1157 1158
f 1175 1174 1157
f 1176 1158 1159
f 1176 1175 1158
f 1177 1176 1159
f 1178 1159 1160
f 1178 1160 1161
f 1178 1177 1159
f 1179 1161 1162
f 1179 1178 1161
f 1180 1179 1162
f 1180 1162 1163
f 1181 1180 1163
f 1181 1163 1164
f 1182 1181 1164
f 1183 1182 1164
f 1183 1164 1165
f 1183 1165 860
f 859 1183 860
f 1184 1179 1180
f 1185 1178 1179
f 1185 1179 1184
f 1186 1180 1181
f 1186 1184 1180
f 1187 1177 1178
f 1187 1178 1185
f 1188 1181 1182
f 1188 1186 1181
f 1189 1176 1177
f 1189 1177 1187
f 1190 1182 1183
f 1190 1188 1182
f 1191 1175 1176
f 1191 1176 1189
f 900 1190 1183
f 900 1183 859
f 1192 1175 1191
f 1192 1174 1175
f 862 900 859
f 901 900 862
f 1193 1174 1192
f 1193 1173 1174
f 864 901 862
f 903 901 864
f 1194 1173 1193
f 1172 1173 1194
f 866 903 864
f 905 903 866
f 1195 1172 1194
f 1171 1172 1195
f 868 905 866
f 907 905 868
f 1196 1171 1195
f 1170 1171 1196
f 870 907 868
f 909 907 870
f 1197 1170 1196
f 1169 1170 1197
f 872 909 870
f 911 909 872
f 1198 1169 1197
f 1168 1169 1198
f 874 911 872
f 913 911 874
f 1199 1168 1198
f 1167 1168 1199
f 1200 1167 1199
f 876 913 874
f 876 915 913
f 1166 1167 1200
f 935 1166 1200
f 878 917 915
f 878 915 876
f 898 1166 935
f 879 919 917
f 879 917 878
f 895 935 934
f 895 898 935
f 881 922 919
f 881 919 879
f 893 934 931
f 893 895 934
f 884 922 881
f 884 924 922
f 891 893 931
f 891 931 929
f 885 924 884
f 885 925 924
f 890 891 929
f 890 929 927
f 887 925 885
f 887 890 927
f 887 927 925
f 936 935 1200
f 1201 1200 1199
f 1201 936 1200
f 1202 1199 1198
f 1202 1201 1199
f 1203 1198 1197
f 1203 1202 1198
f 1204 1197 1196
f 1204 1203 1197
f 1205 1196 1195
f 1205 1204 1196
f 1206 1195 1194
f 1206 1205 1195
f 1207 1194 1193
f 1207 1206 1194
f 1208 1193 1192
f 1208 1207 1193
f 1209 1192 1191
f 1209 1208 1192
f 1210 1191 1189
f 1210 1209 1191
f 1211 1210 1189
f 1212 1189 1187
f 1212 1187 1185
f 1212 1211 1189
f 1213 1185 1184
f 1213 1212 1185
f 1214 1184 1186
f 1214 1213 1184
f 1215 1214 1186
f 1216 1215 1186
f 1216 1186 1188
f 1216 1188 1190
f 1217 1216 1190
f 1217 1190 900
f 899 1217 900
f 1218 1213 1214
f 1219 1212 1213
f 1219 1213 1218
f 1220 1214 1215
f 1220 1218 1214
f 1221 1211 1212
f 1221 1212 1219
f 1222 1215 1216
f 1222 1220 1215
f 1223 1210 1211
f 1223 1211 1221
f 1224 1216 1217
f 1224 1222 1216
f 1225 1209 1210
f 1225 1210 1223
f 938 1217 899
f 938 1224 1217
f 902 938 899
f 1226 1209 1225
f 1226 1208 1209
f 939 938 902
f 904 939 902
f 1227 1208 1226
f 1227 1207 1208
f 942 939 904
f 1228 1207 1227
f 1206 1207 1228
f 906 942 904
f 944 942 906
f 1229 1206 1228
f 1205 1206 1229
f 908 944 906
f 946 944 908
f 1230 1205 1229
f 1204 1205 1230
f 910 946 908
f 948 946 910
f 1231 1204 1230
f 1203 1204 1231
f 912 948 910
f 950 948 912
f 1232 1203 1231
f 1202 1203 1232
f 914 952 950
f 914 950 912
f 1233 1202 1232
f 1201 1202 1233
f 916 954 952
f 916 952 914
f 971 1201 1233
f 936 1201 971
f 918 956 954
f 918 954 916
f 933 971 970
f 933 936 971
f 920 958 956
f 920 956 918
f 932 970 967
f 932 933 970
f 921 960 958
f 921 958 920
f 930 967 966
f 930 932 967
f 923 961 960
f 923 960 921
f 928 930 966
f 928 966 964
f 926 961 923
f 926 928 964
f 926 964 961
f 972 971 1233
f 1234 1233 1232
f 1234 972 1233
f 1235 1232 1231
f 1235 1234 1232
f 1236 1231 1230
f 1236 1235 1231
f 1237 1230 1229
f 1237 1236 1230
f 1238 1237 1229
f 1239 1229 1228
f 1239 1238 1229
f 1240 1228 1227
f 1240 1239 1228
f 1241 1227 1226
f 1241 1240 1227
f 1242 1226 1225
f 1242 1241 1226
f 1243 1225 1223
f 1243 1242 1225
f 1244 1223 1221
f 1244 1243 1223
f 1245 1221 1219
f 1245 1244 1221
f 1246 1219 1218
f 1246 1245 1219
f 1247 1218 1220
f 1247 1246 1218
f 1248 1220 1222
f 1248 1247 1220
f 1249 1248 1222
f 1249 1222 1224
f 940 1249 1224
f 940 1224 938
f 1250 1245 1246
f 1251 1244 1245
f 1251 1245 1250
f 1252 1246 1247
f 1252 1250 1246
f 1253 1244 1251
f 1254 1247 1248
f 1254 1252 1247
f 1243 1244 1253
f 1255 1243 1253
f 1256 1248 1249
f 1256 1254 1248
f 1242 1243 1255
f 1257 1242 1255
f 974 1249 940
f 974 1256 1249
f 1241 1242 1257
f 937 974 940
f 1258 1241 1257
f 975 974 937
f 1240 1241 1258
f 941 975 937
f 1259 1240 1258
f 978 975 941
f 1239 1240 1259
f 943 978 941
f 1260 1239 1259
f 980 978 943
f 1238 1239 1260
f 945 980 943
f 1261 1238 1260
f 982 980 945
f 1237 1238 1261
f 947 982 945
f 1262 1237 1261
f 984 982 947
f 1236 1237 1262
f 949 984 947
f 1263 1236 1262
f 986 984 949
f 1235 1236 1263
f 951 986 949
f 1264 1235 1263
f 988 986 951
f 1234 1235 1264
f 953 988 951
f 1005 1234 1264
f 990 988 953
f 972 1234 1005
f 955 990 953
f 992 990 955
f 969 972 1005
f 969 1005 1004
f 957 992 955
f 994 992 957
f 968 1004 1002
f 968 969 1004
f 959 996 994
f 959 994 957
f 965 1002 999
f 965 968 1002
f 962 998 996
f 962 996 959
f 963 999 998
f 963 998 962
f 963 965 999
f 1265 1006 1005
f 1265 1005 1264
f 1266 1264 1263
f 1266 1265 1264
f 1267 1263 1262
f 1267 1266 1263
f 1268 1262 1261
f 1268 1267 1262
f 1269 1261 1260
f 1269 1268 1261
f 1270 1260 1259
f 1270 1269 1260
f 1271 1259 1258
f 1271 1270 1259
f 1272 1258 1257
f 1272 1271 1258
f 1273 1257 1255
f 1273 1272 1257
f 1274 1255 1253
f 1274 1273 1255
f 1275 1253 1251
f 1275 1274 1253
f 1276 1251 1250
f 1276 1275 1251
f 1277 1250 1252
f 1277 1276 1250
f 1278 1252 1254
f 1278 1277 1252
f 1279 1254 1256
f 1279 1278 1254
f 976 1279 1256
f 976 1256 974
f 1280 1276 1277
f 1281 1275 1276
f 1281 1276 1280
f 1282 1277 1278
f 1282 1280 1277
f 1283 1274 1275
f 1283 1275 1281
f 1284 1282 1278
f 1279 1284 1278
f 1285 1273 1274
f 1285 1274 1283
f 1286 1284 1279
f 976 1286 1279
f 1287 1272 1273
f 1287 1273 1285
f 1008 1286 976
f 973 1008 976
f 1288 1271 1272
f 1288 1272 1287
f 1009 1008 973
f 977 1009 973
f 1289 1270 1271
f 1289 1271 1288
f 1012 1009 977
f 979 1012 977
f 1290 1270 1289
f 1290 1269 1270
f 1014 1012 979
f 981 1014 979
f 1016 1014 981
f 1268 1269 1290
f 1268 1290 1291
f 983 1016 981
f 983 1018 1016
f 1267 1268 1291
f 1267 1291 1292
f 1293 1267 1292
f 985 1018 983
f 985 1020 1018
f 1266 1267 1293
f 987 1020 985
f 987 1022 1020
f 1265 1293 1294
f 1265 1266 1293
f 1039 1265 1294
f 989 1024 1022
f 989 1022 987
f 1006 1265 1039
f 991 1026 1024
f 991 1024 989
f 1003 1006 1039
f 1003 1039 1038
f 993 1028 1026
f 993 1026 991
f 1001 1038 1036
f 1001 1003 1038
f 995 1030 1028
f 995 1028 993
f 1000 1001 1036
f 1000 1036 1034
f 997 1032 1030
f 997 1034 1032
f 997 1030 995
f 997 1000 1034
f 1295 1040 1039
f 1295 1039 1294
f 1296 1294 1293
f 1296 1295 1294
f 1297 1293 1292
f 1297 1296 1293
f 1298 1292 1291
f 1298 1297 1292
f 1299 1291 1290
f 1299 1298 1291
f 1300 1290 1289
f 1300 1299 1290
f 1301 1289 1288
f 1301 1300 1289
f 1302 1288 1287
f 1302 1301 1288
f 1303 1287 1285
f 1303 1302 1287
f 1304 1285 1283
f 1304 1303 1285
f 1305 1283 1281
f 1305 1304 1283
f 1306 1281 1280
f 1306 1305 1281
f 1307 1280 1282
f 1307 1306 1280
f 1308 1282 1284
f 1308 1307 1282
f 1309 1284 1286
f 1309 1308 1284
f 1010 1309 1286
f 1010 1286 1008
f 1308 1306 1307
f 1308 1305 1306
f 1302 1303 1304
f 1007 1309 1010
f 1300 1301 1302
f 1013 1007 1011
f 1013 1309 1007
f 1299 1308 1309
f 1299 1304 1305
f 1299 1305 1308
f 1299 1302 1304
f 1299 1300 1302
f 1297 1298 1299
f 1296 1309 1013
f 1296 1299 1309
f 1296 1297 1299
f 1021 1017 1019
f 1021 1015 1017
f 1021 1013 1015
f 1040 1295 1296
f 1025 1021 1023
f 1035 1037 1040
f 1035 1040 1296
f 1029 1025 1027
f 1033 1035 1296
f 1031 1013 1021
f 1031 1296 1013
f 1031 1021 1025
f 1031 1033 1296
f 1031 1025 1029
